<svg width="300" height="276" viewBox="0 0 300 276" fill="none" xmlns="http://www.w3.org/2000/svg">
<path d="M119.085 52.1753C149.493 57.8298 198.588 41.8366 211.822 77.0882C222.928 106.649 200.412 128.861 225.977 154.201C244.612 172.671 274.542 204.505 238.328 223.923C209.998 239.127 170.192 236.889 140.885 226.182C117.876 217.776 71.3229 192.704 69.9907 164.699C68.4993 133.227 116.088 117.089 71.7355 96.3973C45.0344 83.9517 14.4382 59.6905 40.3284 27.6173C50.5441 14.969 61.1869 19.6533 71.96 27.6173C87.8663 39.4257 98.176 48.2875 119.085 52.1753Z" fill="#E59C7F"/>
<g style="mix-blend-mode:color-dodge" opacity="0.81">
<path d="M119.085 52.1753C149.493 57.8298 198.588 41.8366 211.822 77.0882C222.928 106.649 200.412 128.861 225.977 154.201C244.612 172.671 274.542 204.505 238.328 223.923C209.998 239.127 170.192 236.889 140.885 226.182C117.876 217.776 71.3229 192.704 69.9907 164.699C68.4993 133.227 116.088 117.089 71.7355 96.3973C45.0344 83.9517 14.4382 59.6905 40.3284 27.6173C50.5441 14.969 61.1869 19.6532 71.96 27.6173C87.8663 39.4257 98.176 48.2875 119.085 52.1753Z" fill="#A08EC9"/>
</g>
<path d="M150 264.553C227.528 264.553 290.376 260.884 290.376 256.358C290.376 251.831 227.528 248.162 150 248.162C72.4723 248.162 9.62366 251.831 9.62366 256.358C9.62366 260.884 72.4723 264.553 150 264.553Z" fill="#EBEBEB"/>
<path d="M87.0989 256.749C87.0215 256.749 86.9458 256.727 86.8817 256.683C79.5114 251.767 82.2336 246.178 85.383 239.706C89.4663 231.3 94.5561 220.838 81.039 206.612C69.5346 194.521 63.9454 182.937 65.3065 173.988C65.6467 171.642 66.5379 169.41 67.907 167.474C69.2762 165.539 71.0844 163.955 73.1836 162.853C73.2796 162.802 73.3919 162.792 73.4958 162.823C73.5996 162.855 73.6866 162.927 73.7374 163.023C73.7883 163.119 73.799 163.232 73.7671 163.335C73.7352 163.439 73.6633 163.526 73.5673 163.577C71.5726 164.621 69.8536 166.122 68.5511 167.958C67.2486 169.794 66.3997 171.913 66.0739 174.14C64.7562 182.828 70.2731 194.202 81.6109 206.112C95.519 220.73 90.2989 231.452 86.107 240.082C82.9938 246.482 80.5322 251.536 87.3378 256.068C87.4228 256.127 87.4817 256.216 87.5019 256.318C87.5222 256.419 87.5023 256.524 87.4464 256.611C87.4034 256.66 87.3495 256.698 87.2891 256.721C87.2287 256.745 87.1635 256.755 87.0989 256.749Z" fill="#263238"/>
<path d="M70.722 165.003C75.5511 159.646 73.7121 151.696 72.0324 147.483C68.2459 149.032 65.1689 159.03 70.722 165.003Z" fill="#66331E"/>
<path d="M70.7148 192.755C64.4522 180.874 52.803 179.397 46.2363 178.846C50.1242 186.68 60.3471 196.418 70.7148 192.755Z" fill="#66331E"/>
<path d="M83.4861 244.26C91.8049 230.605 77.4335 220.737 69.8749 210.775C66.9644 220.838 69.1147 238.142 83.4861 244.26Z" fill="#66331E"/>
<path d="M82.1829 207.292C72.0903 195.477 74.3999 186.912 77.1149 181.38C82.5666 188.381 90.7696 200.798 82.1829 207.292Z" fill="#66331E"/>
<path d="M67.7319 168.204C70.6713 164.714 75.761 165.228 78.5195 165.952C77.8606 168.471 71.9021 171.23 67.7319 168.204Z" fill="#66331E"/>
<path d="M89.4809 230.844C90.5886 221.83 94.5489 222.532 97.5897 218.536C97.9706 219.882 98.0571 221.294 97.8435 222.676C97.6299 224.058 97.1211 225.378 96.3517 226.545C95.5823 227.713 94.5703 228.702 93.3847 229.443C92.1991 230.185 90.8676 230.663 89.4809 230.844Z" fill="#66331E"/>
<path d="M207.971 62.4632C203.091 63.5854 196.162 66.3294 190.015 68.7838C190.108 68.3234 190.161 67.8559 190.175 67.3864C189.856 67.9584 189.538 68.5231 189.226 69.1023L188.995 69.1964C189.02 68.5757 188.976 67.9541 188.864 67.343C188.701 68.1644 188.346 68.9357 187.829 69.5946C187.805 69.6301 187.778 69.664 187.749 69.696L186.519 70.1956C186.667 68.9571 186.667 67.7054 186.519 66.467C186.41 67.6441 186.222 68.8125 185.954 69.9639C185.91 70.1376 185.874 70.3114 185.824 70.4924L184.223 71.1512C184.115 70.7096 183.999 70.268 183.883 69.8263L183.304 71.5639L182.638 71.839C182.544 71.1728 182.392 70.5162 182.182 69.877C182.113 70.6584 181.983 71.4331 181.791 72.1938L181.248 72.4255C181.22 71.2371 181.079 70.0541 180.828 68.8924C180.719 69.7974 180.611 70.6879 180.509 71.5856L180.357 72.7947C177.975 73.8083 176.484 74.4671 176.484 74.4671C176.484 74.4671 176.31 65.8516 176.484 52.7906C176.658 39.7297 179.257 29.0434 184.585 23.8306C189.914 18.6178 201.281 17.6983 206.646 22.3319C212.011 26.9655 213.524 37.84 211.489 48.4611C210.309 54.6078 221.676 59.3066 207.971 62.4632Z" fill="#263238"/>
<path d="M160.274 121.65L160.78 120.108C160.98 119.501 161.312 118.945 161.751 118.481C162.19 118.017 162.727 117.655 163.322 117.422L170.019 114.779L173.371 116.416C172.473 120.072 168.346 123.764 168.346 123.764L167.296 124.915C166.857 125.419 166.261 125.76 165.604 125.883C164.948 126.007 164.269 125.905 163.676 125.596L161.157 124.148C160.739 123.903 160.421 123.517 160.259 123.06C160.098 122.603 160.103 122.104 160.274 121.65Z" fill="#B37B76"/>
<path d="M198.088 79.2021C197.958 80.4257 197.82 81.4972 197.654 82.6194C197.487 83.7416 197.292 84.8421 197.096 85.9425C196.684 88.1145 196.213 90.3445 195.648 92.5309C195.083 94.7174 194.475 96.8749 193.773 99.0469C193.071 101.219 192.253 103.355 191.362 105.483L191.239 105.78C191.068 106.187 190.822 106.557 190.515 106.873C189.01 108.38 187.377 109.753 185.635 110.978C184.014 112.18 182.348 113.252 180.69 114.294C179.032 115.337 177.338 116.3 175.622 117.19C173.906 118.081 172.198 119 170.388 119.811C169.846 120.056 169.235 120.099 168.665 119.933C168.095 119.767 167.602 119.402 167.277 118.905C166.952 118.407 166.816 117.81 166.892 117.221C166.969 116.632 167.253 116.089 167.695 115.692H167.731C169.128 114.439 170.576 113.194 171.995 111.963C173.414 110.732 174.848 109.502 176.238 108.263C177.628 107.025 179.003 105.787 180.314 104.557C181.555 103.412 182.721 102.188 183.804 100.893L182.964 102.276C183.579 100.343 184.137 98.3809 184.651 96.3826C185.165 94.3844 185.621 92.3572 186.033 90.3155C186.446 88.2738 186.844 86.2249 187.199 84.1615L187.713 81.0773L188.184 78.0582V77.9134C188.268 77.2654 188.479 76.6404 188.805 76.074C189.13 75.5075 189.564 75.0108 190.082 74.6121C190.6 74.2135 191.191 73.9206 191.822 73.7504C192.452 73.5802 193.111 73.5359 193.759 73.62C194.407 73.7042 195.032 73.9151 195.598 74.2408C196.164 74.5665 196.661 75.0006 197.06 75.5183C197.459 76.0359 197.751 76.6271 197.922 77.2579C198.092 77.8887 198.136 78.5469 198.052 79.1948L198.088 79.2021Z" fill="#B37B76"/>
<path d="M198.298 65.2579C184.737 66.9231 182.421 92.7699 183.651 97.961C185.563 102.428 193.882 100.133 193.882 100.133C193.882 100.133 207.066 80.5271 198.298 65.2579Z" fill="#263238"/>
<path d="M195.25 99.3583C194.944 100.105 194.535 100.804 194.034 101.436C193.995 101.486 193.942 101.524 193.882 101.545C193.158 101.856 187.945 103.847 183.579 100.886C183.503 100.838 183.445 100.767 183.413 100.683C182.998 99.5633 182.811 98.372 182.862 97.179C182.865 97.1123 182.882 97.0469 182.914 96.9883C182.946 96.9296 182.991 96.8792 183.046 96.8412C183.101 96.8032 183.164 96.7786 183.23 96.7694C183.297 96.7601 183.364 96.7665 183.427 96.7881C185.078 97.3818 190.24 99.0542 194.83 98.7646C194.903 98.76 194.976 98.7741 195.041 98.8055C195.107 98.837 195.164 98.8847 195.206 98.9442C195.248 99.0037 195.274 99.073 195.282 99.1455C195.29 99.218 195.279 99.2912 195.25 99.3583Z" fill="white"/>
<path d="M251.215 256.35C257.825 256.35 257.34 256.249 261.047 256.119C264.218 256.01 265.015 256.408 267.563 256.35C269.699 256.3 269.467 254.258 268.627 251.905C268.207 250.725 267.592 249.277 266.991 247.373H256.942C255.776 249.972 253.206 251.927 249.521 252.441C245.995 252.904 248.573 256.35 251.215 256.35Z" fill="#263238"/>
<path d="M196.589 256.35C204.995 256.35 205.799 252.73 208.897 250.812C211.576 249.176 212.64 249.632 215.413 248.068C217.245 247.04 216.434 244.774 214.965 243.565C213.616 242.476 212.416 241.215 211.395 239.814L203.2 243.434C202.751 246.736 201.201 252.296 196.264 252.644C192.752 252.926 193.99 256.35 196.589 256.35Z" fill="#263238"/>
<path d="M198.247 116.568C198.247 116.568 182.319 157.112 180.205 177.217C180.147 193.869 203.221 243.456 203.221 243.456C203.945 244.694 210.563 241.132 211.417 239.836C202.917 219.086 207.384 193.124 199.717 177.891C216.152 154.52 228.901 111.283 228.901 111.283L198.247 116.568Z" fill="#E59C7F"/>
<path opacity="0.2" d="M195.518 126.66C195.47 126.666 195.422 126.653 195.384 126.623C195.346 126.593 195.321 126.549 195.315 126.501C195.309 126.453 195.323 126.405 195.353 126.367C195.383 126.329 195.426 126.304 195.474 126.298C197.467 125.869 199.232 124.722 200.434 123.077C200.459 123.037 200.499 123.008 200.545 122.997C200.591 122.987 200.639 122.994 200.68 123.019C200.7 123.031 200.718 123.046 200.732 123.065C200.747 123.084 200.757 123.106 200.762 123.129C200.767 123.152 200.768 123.176 200.764 123.2C200.76 123.223 200.751 123.245 200.738 123.265C199.499 125.007 197.647 126.217 195.554 126.653L195.518 126.66Z" fill="white"/>
<path opacity="0.2" d="M213.176 135.276C209.629 142.458 209.071 153.173 209.353 161.383C213.79 152.415 217.746 143.217 221.205 133.828L221.169 133.792C220.59 133.255 219.893 132.861 219.134 132.642C218.376 132.422 217.577 132.383 216.8 132.527C216.024 132.671 215.292 132.995 214.662 133.472C214.033 133.949 213.524 134.567 213.176 135.276Z" fill="black"/>
<path d="M207.435 115.004C207.435 115.004 211.67 152.876 220.076 178.716C224.275 191.603 248.24 220.875 256.942 247.395C258.564 248.292 264.008 248.35 266.991 247.395C266.991 247.395 253.619 189.105 239.219 176.841C239.175 145.34 240.305 130.136 233.427 110.472L207.435 115.004Z" fill="#E59C7F"/>
<path opacity="0.2" d="M263.306 243.876C263.264 243.877 263.222 243.863 263.189 243.836C263.156 243.81 263.133 243.773 263.125 243.731C257.174 208.537 235.859 177.847 235.613 177.565C235.602 177.524 235.602 177.482 235.613 177.442C235.613 177.405 235.982 173.098 236.337 157.097C236.685 142.038 235.294 125.697 235.121 123.728C233.991 123.916 228.293 124.691 223.978 121.86C223.958 121.847 223.941 121.83 223.927 121.81C223.914 121.79 223.905 121.768 223.9 121.744C223.895 121.72 223.895 121.696 223.9 121.673C223.905 121.649 223.914 121.627 223.928 121.607C223.955 121.567 223.997 121.54 224.044 121.531C224.091 121.522 224.14 121.531 224.181 121.556C228.836 124.611 235.186 123.352 235.251 123.337C235.272 123.327 235.296 123.321 235.32 123.321C235.344 123.321 235.367 123.327 235.389 123.337C235.41 123.352 235.428 123.372 235.442 123.394C235.455 123.416 235.464 123.441 235.468 123.467C235.468 123.641 237.068 141.082 236.699 157.075C236.344 172.019 235.975 176.783 235.975 177.384C236.989 178.832 257.623 209.066 263.487 243.637C263.491 243.661 263.49 243.685 263.485 243.709C263.48 243.732 263.469 243.754 263.455 243.774C263.441 243.794 263.423 243.81 263.402 243.823C263.382 243.835 263.359 243.843 263.335 243.847L263.306 243.876Z" fill="white"/>
<path d="M255.038 243.608C255.364 244.828 255.605 246.069 255.762 247.322C255.799 247.551 255.906 247.762 256.07 247.926C256.234 248.09 256.445 248.198 256.674 248.234C260.519 248.821 265.594 247.967 267.194 247.663C267.265 247.651 267.334 247.626 267.395 247.587C267.456 247.548 267.508 247.498 267.549 247.438C267.59 247.378 267.618 247.311 267.631 247.24C267.645 247.169 267.644 247.096 267.628 247.025L267.179 243.55C267.135 243.306 267.008 243.084 266.819 242.922C266.631 242.76 266.392 242.667 266.144 242.66L255.581 242.862C255.49 242.859 255.4 242.879 255.318 242.919C255.236 242.959 255.165 243.018 255.112 243.091C255.058 243.165 255.024 243.25 255.011 243.341C254.998 243.431 255.007 243.522 255.038 243.608Z" fill="#E59C7F"/>
<path opacity="0.2" d="M255.038 243.608C255.364 244.828 255.605 246.069 255.762 247.322C255.799 247.551 255.906 247.762 256.07 247.926C256.234 248.09 256.445 248.198 256.674 248.234C260.519 248.821 265.594 247.967 267.194 247.663C267.265 247.651 267.334 247.626 267.395 247.587C267.456 247.548 267.508 247.498 267.549 247.438C267.59 247.378 267.618 247.311 267.631 247.24C267.645 247.169 267.644 247.096 267.628 247.025L267.179 243.55C267.135 243.306 267.008 243.084 266.819 242.922C266.631 242.76 266.392 242.667 266.144 242.66L255.581 242.862C255.49 242.859 255.4 242.879 255.318 242.919C255.236 242.959 255.165 243.018 255.112 243.091C255.058 243.165 255.024 243.25 255.011 243.341C254.998 243.431 255.007 243.522 255.038 243.608Z" fill="black"/>
<path d="M200.861 240.205C201.187 241.118 201.759 242.754 202.143 243.977C202.203 244.171 202.337 244.333 202.516 244.428C202.695 244.523 202.904 244.543 203.098 244.484C206.153 243.608 210.635 241.183 212.098 240.372C212.238 240.293 212.351 240.171 212.418 240.024C212.486 239.877 212.505 239.712 212.474 239.554L211.822 236.042C211.802 235.93 211.756 235.824 211.69 235.732C211.623 235.64 211.537 235.564 211.437 235.509C211.337 235.454 211.226 235.422 211.113 235.416C210.999 235.409 210.885 235.428 210.78 235.47L201.303 239.228C201.116 239.301 200.965 239.444 200.883 239.627C200.8 239.809 200.792 240.017 200.861 240.205Z" fill="#E59C7F"/>
<path opacity="0.2" d="M200.861 240.205C201.187 241.118 201.759 242.754 202.143 243.977C202.203 244.171 202.337 244.333 202.516 244.428C202.695 244.523 202.904 244.543 203.098 244.484C206.153 243.608 210.635 241.183 212.098 240.372C212.238 240.293 212.351 240.171 212.418 240.024C212.486 239.877 212.505 239.712 212.474 239.554L211.822 236.042C211.802 235.93 211.756 235.824 211.69 235.732C211.623 235.64 211.537 235.564 211.437 235.509C211.337 235.454 211.226 235.422 211.113 235.416C210.999 235.409 210.885 235.428 210.78 235.47L201.303 239.228C201.116 239.301 200.965 239.444 200.883 239.627C200.8 239.809 200.792 240.017 200.861 240.205Z" fill="black"/>
<path d="M198.059 115.062C198.153 115.532 197.661 117.552 196.922 119.341C198.226 120.224 202.714 121.201 208.383 121.447C208.919 120.571 209.252 118.262 209.672 117.321C210.086 118.933 210.968 120.386 212.206 121.498C215.383 121.449 218.551 121.137 221.676 120.564C232.717 118.494 235.323 115.062 235.323 115.062C235.323 115.062 233.209 108.691 232.608 106.374C226.896 106.801 198.356 107.634 198.059 115.062Z" fill="white"/>
<path d="M187.735 82.9885C189.344 88.2011 191.217 93.3288 193.346 98.3518C197.654 109.429 196.64 111.869 197.755 116.416C200.844 117.612 204.123 118.243 207.435 118.276C207.952 117.121 208.614 116.036 209.404 115.047C210.28 115.634 212.988 117.321 214.545 117.422C221.582 116.336 230.661 113.606 233.846 110.233C231.421 100.444 230.545 89.7724 229.126 66.2931C228.793 60.8559 224 57.1924 218.831 58.4305C217.448 58.7635 215.993 59.1545 214.487 59.5816C208.738 61.283 204.039 62.7238 199.181 64.9392C197.574 65.6632 195.923 66.4813 194.352 67.285C191.605 68.735 189.444 71.0917 188.238 73.9545C187.031 76.8173 186.854 80.0095 187.735 82.9885Z" fill="#263238"/>
<path d="M247.943 121.614L246.849 120.412C246.422 119.938 246.105 119.376 245.92 118.765C245.734 118.155 245.686 117.511 245.778 116.879L246.813 109.748L249.897 107.655C252.62 110.247 253.778 115.656 253.778 115.656L254.256 117.104C254.468 117.731 254.466 118.41 254.252 119.036C254.037 119.662 253.621 120.199 253.069 120.564L250.542 122.012C250.131 122.261 249.645 122.358 249.17 122.285C248.695 122.212 248.26 121.975 247.943 121.614Z" fill="#B37B76"/>
<path d="M232.761 65.2795C233.694 66.1483 234.476 66.9158 235.295 67.7556C236.113 68.5955 236.873 69.4281 237.648 70.2751C239.175 71.9838 240.652 73.7359 242.064 75.5603C243.476 77.3848 244.83 79.2383 246.111 81.1713C247.393 83.1044 248.594 85.1027 249.731 87.1516L249.876 87.4122C249.981 87.6056 250.066 87.8094 250.129 88.0204C250.685 90.0771 251.068 92.1768 251.273 94.2974C251.505 96.2957 251.606 98.2722 251.686 100.227C251.766 102.182 251.765 104.137 251.722 106.084C251.679 108.032 251.592 109.958 251.403 111.934C251.349 112.527 251.083 113.081 250.655 113.495C250.227 113.909 249.665 114.156 249.07 114.191C248.475 114.226 247.888 114.047 247.414 113.686C246.94 113.325 246.612 112.806 246.488 112.224V112.18C246.089 110.341 245.764 108.466 245.365 106.62C244.967 104.774 244.641 102.928 244.258 101.103C243.874 99.2786 243.483 97.483 243.063 95.7237C242.689 94.0786 242.206 92.4605 241.615 90.8802L242.013 91.7417C240.855 90.0258 239.66 88.3317 238.393 86.6737C237.126 85.0158 235.801 83.3795 234.433 81.7723C233.065 80.165 231.675 78.5794 230.241 77.0301L228.069 74.7205C227.345 73.9965 226.621 73.1711 225.933 72.5123L225.854 72.4254C224.906 71.5076 224.362 70.2509 224.341 68.9318C224.32 67.6128 224.823 66.3394 225.741 65.3918C226.659 64.4442 227.916 63.9 229.235 63.8789C230.554 63.8579 231.827 64.3617 232.775 65.2795H232.761Z" fill="#B37B76"/>
<path d="M218.215 58.5319C231.008 53.7246 245.003 75.5459 246.335 80.7442C246.705 85.5878 238.256 87.3833 238.256 87.3833C238.256 87.3833 217.513 76.1541 218.215 58.5319Z" fill="#263238"/>
<path d="M201.788 75.7125C201.709 75.7122 201.631 75.6913 201.563 75.652C201.494 75.6126 201.437 75.5561 201.397 75.4881C201.367 75.4368 201.348 75.3801 201.34 75.3214C201.332 75.2626 201.336 75.2029 201.352 75.1457C201.367 75.0885 201.394 75.0349 201.43 74.988C201.467 74.9412 201.512 74.902 201.563 74.8727C202.613 74.2573 207.022 69.9495 208.803 66.3367C208.829 66.2831 208.866 66.2352 208.911 66.1958C208.956 66.1565 209.008 66.1265 209.065 66.1076C209.121 66.0888 209.181 66.0814 209.241 66.0859C209.3 66.0904 209.358 66.1068 209.411 66.134C209.518 66.1883 209.6 66.2826 209.638 66.3965C209.676 66.5103 209.667 66.6345 209.614 66.7421C207.688 70.5649 203.098 74.9813 201.983 75.6546C201.923 75.6889 201.857 75.7087 201.788 75.7125Z" fill="#E59C7F"/>
<path d="M200.231 75.4881C200.15 75.487 200.071 75.4671 199.999 75.4302C198.646 74.6338 196.235 71.412 196.546 67.22C196.544 67.1562 196.555 67.0926 196.579 67.0334C196.604 66.9743 196.64 66.9208 196.686 66.8766C196.732 66.8323 196.787 66.7982 196.847 66.7765C196.907 66.7548 196.971 66.746 197.035 66.7506C197.098 66.7552 197.16 66.7731 197.217 66.8032C197.273 66.8333 197.322 66.8748 197.362 66.9252C197.401 66.9756 197.429 67.0337 197.445 67.0957C197.46 67.1577 197.462 67.2223 197.451 67.2852C197.154 71.3323 199.587 74.1342 200.463 74.6482C200.55 74.6974 200.618 74.7744 200.657 74.8669C200.695 74.9594 200.702 75.0621 200.675 75.1587C200.649 75.2553 200.59 75.3402 200.51 75.3999C200.429 75.4596 200.331 75.4906 200.231 75.4881Z" fill="#E59C7F"/>
<path d="M206.233 43.0021C207.08 48.338 209.325 57.692 213.669 59.8568C213.669 59.8568 208.76 60.7835 201.006 70.3765C196.698 67.2633 198.37 65.2072 198.37 65.2072C203.496 61.9419 202.352 58.4884 200.05 55.0712L206.233 43.0021Z" fill="#B37B76"/>
<path d="M202.656 68.4145C206.081 67.7339 208.825 72.3024 208.825 72.3024C208.825 72.3024 214.718 64.0271 215.833 59.2704C214.654 59.0594 213.487 58.7863 212.336 58.4523C212.336 58.4523 203.902 65.866 202.656 68.4145Z" fill="white"/>
<path d="M199.37 68.972C199.37 68.972 196.821 70.7168 197.198 75.0391C193.94 68.1176 196.872 65.7212 196.872 65.7212C197.594 64.9117 198.589 64.3963 199.666 64.2732C199.079 64.9001 198.728 65.7119 198.674 66.5693C198.62 67.4266 198.866 68.2761 199.37 68.972Z" fill="white"/>
<path opacity="0.2" d="M203.714 47.9253L200.05 55.0712C200.606 55.8644 201.09 56.705 201.498 57.5835C203.417 56.3744 205.372 52.8268 204.8 50.5317C204.596 49.6051 204.228 48.7225 203.714 47.9253Z" fill="black"/>
<path d="M187.163 50.5679H185.476C185.447 50.5674 185.418 50.5607 185.392 50.5482C185.366 50.5357 185.343 50.5177 185.324 50.4955C185.306 50.472 185.294 50.445 185.287 50.4162C185.281 50.3874 185.281 50.3577 185.288 50.3289L186.128 46.4555C186.136 46.4121 186.16 46.3731 186.194 46.3453C186.228 46.3175 186.272 46.3027 186.316 46.3035C186.361 46.3037 186.404 46.3187 186.439 46.3462C186.475 46.3737 186.5 46.4122 186.511 46.4555L187.351 50.3289C187.358 50.3577 187.358 50.3874 187.351 50.4162C187.345 50.445 187.333 50.472 187.315 50.4955C187.296 50.517 187.272 50.5346 187.246 50.547C187.22 50.5594 187.192 50.5665 187.163 50.5679ZM185.715 50.1697H186.924L186.33 47.4329L185.715 50.1697Z" fill="white"/>
<path d="M206.023 31.6281C208.021 39.9613 209.035 43.4366 206.305 49.0838C202.186 57.5835 191.825 58.713 187.438 51.2558C183.492 44.5515 180.922 32.048 187.677 25.9664C194.432 19.8848 204.025 23.2949 206.023 31.6281Z" fill="#B37B76"/>
<path d="M182.667 35.2047C190.334 33.706 194.975 26.2778 198.595 26.5167C198.045 32.1494 202.461 38.5134 206.812 38.6654C212.698 38.8681 207.247 24.4026 203.294 22.1148C199.123 19.6749 181.313 19.5011 182.667 35.2047Z" fill="#263238"/>
<path d="M203.243 38.9839C202.591 38.97 201.959 38.7494 201.44 38.354C198.783 36.4499 197.176 30.5348 198.197 26.4153C198.203 26.3592 198.222 26.3051 198.251 26.2566C198.28 26.2082 198.319 26.1664 198.365 26.1342C198.411 26.102 198.464 26.08 198.52 26.0697C198.575 26.0594 198.632 26.061 198.687 26.0745C198.742 26.0879 198.793 26.1129 198.838 26.1477C198.882 26.1825 198.919 26.2264 198.945 26.2765C198.971 26.3265 198.986 26.3815 198.99 26.4379C198.993 26.4943 198.984 26.5508 198.964 26.6035C198.03 30.39 199.507 36.0155 201.896 37.7097C202.262 37.9999 202.712 38.1644 203.179 38.1787C203.646 38.1931 204.105 38.0565 204.488 37.7893C204.531 37.761 204.58 37.7416 204.631 37.7321C204.681 37.7227 204.733 37.7233 204.784 37.7341C204.834 37.7449 204.882 37.7655 204.925 37.7949C204.967 37.8242 205.003 37.8617 205.031 37.9052C205.089 37.9935 205.109 38.1011 205.087 38.2042C205.065 38.3074 205.004 38.3977 204.915 38.4554C204.42 38.7871 203.839 38.9705 203.243 38.9839Z" fill="#263238"/>
<path d="M194.417 38.3613C194.613 39.0853 194.417 39.7369 193.997 39.8962C193.578 40.0555 193.056 39.6138 192.861 38.926C192.665 38.2382 192.861 37.5432 193.281 37.3912C193.701 37.2391 194.222 37.6663 194.417 38.3613Z" fill="#263238"/>
<path d="M185.884 42.9583C186.328 42.8533 186.553 42.2004 186.387 41.5C186.221 40.7996 185.727 40.317 185.284 40.422C184.84 40.527 184.615 41.1799 184.781 41.8803C184.947 42.5807 185.441 43.0633 185.884 42.9583Z" fill="#263238"/>
<path d="M185.425 40.4319L183.709 40.526C183.709 40.526 184.889 41.5106 185.425 40.4319Z" fill="#263238"/>
<path d="M188.944 41.7279C188.807 43.5238 188.442 45.295 187.858 46.9986C188.973 47.5344 190.334 46.6077 190.334 46.6077L188.944 41.7279Z" fill="#A02724"/>
<path d="M194.591 47.6719C194.22 47.8107 193.837 47.9149 193.447 47.9832C193.421 47.9873 193.394 47.986 193.368 47.9793C193.343 47.9727 193.319 47.9609 193.298 47.9446C193.277 47.9284 193.259 47.908 193.246 47.8848C193.233 47.8615 193.225 47.8359 193.223 47.8095C193.216 47.7532 193.231 47.6965 193.265 47.6508C193.298 47.6052 193.348 47.5739 193.404 47.5633C194.286 47.4079 195.121 47.0558 195.848 46.5331C196.575 46.0104 197.175 45.3306 197.603 44.5442C197.625 44.4934 197.666 44.4531 197.717 44.4316C197.769 44.41 197.826 44.4089 197.878 44.4284C197.903 44.4407 197.925 44.4578 197.943 44.4787C197.961 44.4995 197.975 44.5238 197.984 44.55C197.993 44.5763 197.996 44.604 197.994 44.6316C197.992 44.6591 197.985 44.6861 197.972 44.7108C197.247 46.0791 196.043 47.133 194.591 47.6719Z" fill="#263238"/>
<path d="M210.15 39.5342C209.998 40.3412 209.679 41.1076 209.214 41.7845C208.749 42.4614 208.148 43.0339 207.449 43.4655C205.683 44.4502 204.3 42.4809 204.38 40.1496C204.452 38.0428 205.458 34.9948 207.435 34.9948C209.411 34.9948 210.613 37.384 210.15 39.5342Z" fill="#B27B75"/>
<path d="M190.102 35.3638C190.131 35.3174 190.169 35.2774 190.214 35.2463C190.259 35.2151 190.309 35.1935 190.363 35.1828C190.868 35.11 191.347 34.9123 191.757 34.6076C192.167 34.3029 192.494 33.9009 192.709 33.438C192.727 33.3881 192.755 33.3425 192.792 33.3043C192.829 33.2661 192.873 33.2361 192.922 33.2162C192.972 33.1964 193.024 33.1872 193.078 33.1892C193.131 33.1913 193.183 33.2045 193.23 33.228C193.332 33.2769 193.412 33.3617 193.454 33.4659C193.497 33.5702 193.5 33.6866 193.462 33.7928C193.198 34.3821 192.791 34.8958 192.278 35.2867C191.764 35.6776 191.16 35.9332 190.522 36.0299C190.413 36.0444 190.302 36.0153 190.214 35.949C190.126 35.8826 190.068 35.7842 190.052 35.6752C190.03 35.5687 190.048 35.4581 190.102 35.3638Z" fill="#263238"/>
<path d="M182.819 38.6074C182.771 38.629 182.719 38.6402 182.667 38.6402C182.614 38.6402 182.563 38.629 182.515 38.6074C182.465 38.5848 182.421 38.5526 182.383 38.5126C182.346 38.4727 182.318 38.4258 182.299 38.3746C182.28 38.3234 182.271 38.269 182.274 38.2146C182.276 38.1601 182.289 38.1066 182.312 38.0572C182.551 37.4239 182.933 36.8542 183.427 36.3922C183.922 35.9302 184.517 35.5882 185.165 35.3929C185.217 35.3825 185.271 35.3831 185.323 35.3944C185.376 35.4058 185.425 35.4278 185.468 35.459C185.512 35.4902 185.548 35.53 185.576 35.5759C185.603 35.6218 185.621 35.6729 185.628 35.7259C185.644 35.8375 185.618 35.9511 185.555 36.0446C185.492 36.1382 185.397 36.2052 185.288 36.2327C184.777 36.3931 184.31 36.6683 183.922 37.0373C183.534 37.4063 183.236 37.8592 183.051 38.3613C183.031 38.4161 183 38.4663 182.961 38.5087C182.921 38.5511 182.872 38.5847 182.819 38.6074Z" fill="#263238"/>
<path d="M193.483 37.355L191.768 37.4491C191.768 37.4491 192.948 38.4554 193.483 37.355Z" fill="#263238"/>
<path d="M200.217 72.4473C200.868 72.3217 201.53 72.2587 202.193 72.259C202.358 72.2637 202.518 72.321 202.648 72.4226C202.778 72.5242 202.872 72.6647 202.917 72.8238C203.127 73.5478 203.518 74.8654 203.75 75.4953C204.076 76.4003 201.513 78.261 201.513 78.261C201.513 78.261 199.399 77.2546 199.341 75.9225C199.334 74.9796 199.405 74.0377 199.551 73.1061C199.574 72.9386 199.652 72.7836 199.773 72.6646C199.893 72.5456 200.049 72.4693 200.217 72.4473Z" fill="#E59C7F"/>
<path d="M205.516 98.9528C205.343 94.7753 202.62 75.6979 202.62 75.6979L200.586 75.9513C200.434 78.6663 198.993 94.978 198.993 99.3003C198.993 103.623 202.685 108.452 202.685 108.452C202.685 108.452 205.69 103.123 205.516 98.9528Z" fill="#E59C7F"/>
<path d="M236.692 87.3761C237.309 87.8961 237.997 88.3274 238.733 88.6576C238.795 88.6721 238.86 88.6721 238.922 88.6576C239.718 88.5924 245.249 87.9336 247.747 83.3072C247.791 83.2276 247.811 83.1372 247.805 83.0466C247.651 81.863 247.265 80.7214 246.669 79.6872C246.636 79.6291 246.59 79.5794 246.535 79.5421C246.479 79.5048 246.416 79.481 246.35 79.4726C246.284 79.4641 246.217 79.4713 246.154 79.4935C246.091 79.5156 246.034 79.5523 245.988 79.6004C244.801 80.8891 241 84.7552 236.793 86.6232C236.719 86.6494 236.654 86.6956 236.604 86.7565C236.555 86.8175 236.523 86.8909 236.513 86.9687C236.502 87.0465 236.513 87.1257 236.545 87.1976C236.577 87.2694 236.627 87.3312 236.692 87.3761Z" fill="white"/>
<path d="M180.408 134.784L176.853 142.024C176.685 142.365 176.448 142.669 176.159 142.916C175.869 143.163 175.532 143.349 175.168 143.461C174.804 143.574 174.421 143.611 174.042 143.57C173.664 143.53 173.297 143.412 172.965 143.225L127.143 117.4L131.176 109.212L179.054 131.033C179.391 131.189 179.693 131.41 179.944 131.683C180.195 131.956 180.389 132.277 180.515 132.626C180.641 132.974 180.696 133.345 180.678 133.715C180.659 134.086 180.568 134.449 180.408 134.784Z" fill="#E59C7F"/>
<path opacity="0.4" d="M180.408 134.784L176.853 142.024C176.685 142.365 176.448 142.669 176.159 142.916C175.869 143.163 175.532 143.349 175.168 143.461C174.804 143.574 174.421 143.611 174.042 143.57C173.664 143.53 173.297 143.412 172.965 143.225L127.143 117.4L131.176 109.212L179.054 131.033C179.391 131.189 179.693 131.41 179.944 131.683C180.195 131.956 180.389 132.277 180.515 132.626C180.641 132.974 180.696 133.345 180.678 133.715C180.659 134.086 180.568 134.449 180.408 134.784Z" fill="black"/>
<path d="M131.212 79.7885C131.154 79.6437 131.104 79.5062 131.053 79.3686C130.857 78.8618 130.647 78.3623 130.43 77.8627L130.336 77.6672C130.148 77.2328 129.945 76.8057 129.735 76.3785C129.663 76.2264 129.583 76.0817 129.504 75.9296C129.323 75.5676 129.134 75.2056 128.939 74.8508C128.859 74.7205 128.787 74.583 128.714 74.4454C128.446 73.9676 128.164 73.497 127.875 72.9974L127.773 72.8381C127.513 72.4254 127.245 72.0128 126.97 71.6073L126.673 71.1874C126.441 70.8544 126.195 70.5213 125.949 70.1883L125.666 69.8046C125.326 69.3629 124.979 68.9213 124.624 68.4941L124.515 68.371C124.189 67.9801 123.849 67.5964 123.509 67.2199L123.161 66.8434C122.872 66.5393 122.582 66.2352 122.285 65.9384L121.938 65.5837C121.532 65.183 121.12 64.7921 120.7 64.4108L120.613 64.3311C120.215 63.9691 119.809 63.6071 119.389 63.2741L118.991 62.9483L117.977 62.1519L117.572 61.8406C117.089 61.493 116.607 61.1528 116.124 60.8197H116.073C115.603 60.5084 115.125 60.1971 114.625 59.9002L114.162 59.6179C113.793 59.3934 113.438 59.1762 113.025 58.959L112.555 58.6984C112.026 58.4088 111.498 58.1264 110.947 57.8586C91.5949 48.3597 68.7817 55.158 60.014 73.0626L57.118 78.8546C65.8857 60.9862 88.6989 54.1879 108.059 63.6868C108.602 63.9546 109.137 64.237 109.659 64.5194C109.818 64.6062 109.977 64.6931 110.129 64.7872C110.513 64.9972 110.897 65.2216 111.273 65.4461L111.729 65.7212C112.214 66.0253 112.692 66.3294 113.177 66.6479L113.228 66.6841C113.72 67.0172 114.191 67.3574 114.676 67.705L115.081 68.0163C115.422 68.2769 115.762 68.5376 116.088 68.8055L116.5 69.1385C116.913 69.486 117.319 69.8625 117.717 70.1883L117.804 70.2679C118.231 70.6517 118.636 71.0498 119.042 71.448C119.165 71.5639 119.273 71.6797 119.389 71.7956C119.686 72.0924 119.976 72.3965 120.265 72.7006L120.613 73.0843C120.96 73.4608 121.293 73.8083 121.619 74.2355L121.728 74.3585C122.085 74.7881 122.432 75.2225 122.77 75.6617L123.06 76.0527C123.306 76.3785 123.545 76.7115 123.784 77.0518C123.878 77.1894 123.979 77.3269 124.074 77.4717C124.349 77.8772 124.617 78.2826 124.877 78.6953C124.913 78.7532 124.95 78.8039 124.979 78.8618C125.268 79.3252 125.55 79.803 125.818 80.3098L126.043 80.7225C126.238 81.0773 126.427 81.4465 126.615 81.8013L126.839 82.2501C127.049 82.6773 127.252 83.1045 127.44 83.5316C127.476 83.5968 127.505 83.6692 127.534 83.7343C127.751 84.2267 127.961 84.7335 128.157 85.233L128.316 85.6529C128.461 86.0367 128.591 86.3769 128.722 86.7896C128.78 86.9489 128.83 87.1082 128.881 87.2675C129.026 87.7019 129.156 88.1363 129.286 88.5779C129.286 88.6575 129.337 88.7372 129.359 88.8241C129.504 89.3381 129.634 89.8594 129.75 90.3734C129.75 90.5182 129.815 90.663 129.844 90.8078C129.931 91.1988 130.01 91.5897 130.083 91.9807C130.083 92.1472 130.148 92.3137 130.17 92.4803C130.249 92.9147 130.314 93.3563 130.372 93.798C130.372 93.8921 130.372 93.9789 130.409 94.0731C130.481 94.6016 130.532 95.1301 130.575 95.6586V96.093C130.604 96.4936 130.626 96.8918 130.64 97.2876C130.64 97.4542 130.64 97.6279 130.64 97.7944C130.64 98.2288 130.64 98.6632 130.64 99.1049V99.4017C130.64 99.5682 130.64 99.7348 130.64 99.894C130.64 100.379 130.597 100.871 130.553 101.342C130.553 101.574 130.503 101.805 130.481 102.066C130.437 102.476 130.387 102.889 130.329 103.304C130.329 103.557 130.249 103.811 130.206 104.028C130.141 104.426 130.068 104.824 129.989 105.215C129.938 105.469 129.88 105.722 129.829 105.939C129.735 106.345 129.634 106.75 129.525 107.149C129.453 107.402 129.388 107.655 129.315 107.916L129.142 108.473C129.033 108.828 128.917 109.197 128.794 109.53C128.729 109.726 128.656 109.914 128.584 110.11C128.454 110.472 128.309 110.834 128.157 111.196C128.092 111.362 128.027 111.529 127.954 111.695C127.73 112.217 127.498 112.738 127.23 113.252L130.09 107.424C130.343 106.91 130.575 106.388 130.814 105.867C130.886 105.701 130.952 105.534 131.017 105.367C131.169 105.005 131.306 104.643 131.444 104.281C131.516 104.093 131.581 103.898 131.654 103.71C131.777 103.355 131.893 102.986 132.001 102.652L132.175 102.088L132.262 101.813C132.305 101.653 132.342 101.487 132.385 101.32C132.486 100.922 132.595 100.524 132.682 100.118C132.74 99.8651 132.798 99.6189 132.848 99.3945C132.928 98.9963 133 98.5981 133.066 98.2071C133.109 97.9537 133.152 97.7003 133.189 97.4831C133.247 97.0704 133.297 96.6578 133.341 96.2378C133.341 96.0062 133.391 95.7745 133.413 95.5138C133.457 95.0288 133.478 94.5437 133.5 94.0658C133.5 93.9283 133.5 93.7907 133.5 93.6531V93.2694C133.5 92.835 133.5 92.3934 133.5 91.959C133.5 91.7925 133.5 91.6259 133.5 91.4594C133.5 91.0612 133.5 90.6558 133.435 90.2576C133.435 90.1128 133.435 89.968 133.435 89.8304C133.435 89.2947 133.341 88.7661 133.276 88.2376C133.276 88.1507 133.276 88.0566 133.239 87.9625C133.181 87.5281 133.116 87.0865 133.037 86.6448L132.95 86.1525C132.877 85.7615 132.798 85.3706 132.711 84.9796C132.711 84.8348 132.653 84.69 132.617 84.5452C132.494 84.0239 132.363 83.5027 132.226 82.9886C132.197 82.9079 132.173 82.8257 132.153 82.7425C132.023 82.3081 131.893 81.8737 131.748 81.4393C131.697 81.28 131.647 81.1207 131.589 80.9614C131.487 80.5415 131.35 80.165 131.212 79.7885Z" fill="#E59C7F"/>
<path opacity="0.4" d="M131.212 79.7885C131.154 79.6437 131.104 79.5062 131.053 79.3686C130.857 78.8618 130.647 78.3623 130.43 77.8627L130.336 77.6672C130.148 77.2328 129.945 76.8057 129.735 76.3785C129.663 76.2264 129.583 76.0817 129.504 75.9296C129.323 75.5676 129.134 75.2056 128.939 74.8508C128.859 74.7205 128.787 74.583 128.714 74.4454C128.446 73.9676 128.164 73.497 127.875 72.9974L127.773 72.8381C127.513 72.4254 127.245 72.0128 126.97 71.6073L126.673 71.1874C126.441 70.8544 126.195 70.5213 125.949 70.1883L125.666 69.8046C125.326 69.3629 124.979 68.9213 124.624 68.4941L124.515 68.371C124.189 67.9801 123.849 67.5964 123.509 67.2199L123.161 66.8434C122.872 66.5393 122.582 66.2352 122.285 65.9384L121.938 65.5837C121.532 65.183 121.12 64.7921 120.7 64.4108L120.613 64.3311C120.215 63.9691 119.809 63.6071 119.389 63.2741L118.991 62.9483L117.977 62.1519L117.572 61.8406C117.089 61.493 116.607 61.1528 116.124 60.8197H116.073C115.603 60.5084 115.125 60.1971 114.625 59.9002L114.162 59.6179C113.793 59.3934 113.438 59.1762 113.025 58.959L112.555 58.6984C112.026 58.4088 111.498 58.1264 110.947 57.8586C91.5949 48.3597 68.7817 55.158 60.014 73.0626L57.118 78.8546C65.8857 60.9862 88.6989 54.1879 108.059 63.6868C108.602 63.9546 109.137 64.237 109.659 64.5194C109.818 64.6062 109.977 64.6931 110.129 64.7872C110.513 64.9972 110.897 65.2216 111.273 65.4461L111.729 65.7212C112.214 66.0253 112.692 66.3294 113.177 66.6479L113.228 66.6841C113.72 67.0172 114.191 67.3574 114.676 67.705L115.081 68.0163C115.422 68.2769 115.762 68.5376 116.088 68.8055L116.5 69.1385C116.913 69.486 117.319 69.8625 117.717 70.1883L117.804 70.2679C118.231 70.6517 118.636 71.0498 119.042 71.448C119.165 71.5639 119.273 71.6797 119.389 71.7956C119.686 72.0924 119.976 72.3965 120.265 72.7006L120.613 73.0843C120.96 73.4608 121.293 73.8083 121.619 74.2355L121.728 74.3585C122.085 74.7881 122.432 75.2225 122.77 75.6617L123.06 76.0527C123.306 76.3785 123.545 76.7115 123.784 77.0518C123.878 77.1894 123.979 77.3269 124.074 77.4717C124.349 77.8772 124.617 78.2826 124.877 78.6953C124.913 78.7532 124.95 78.8039 124.979 78.8618C125.268 79.3252 125.55 79.803 125.818 80.3098L126.043 80.7225C126.238 81.0773 126.427 81.4465 126.615 81.8013L126.839 82.2501C127.049 82.6773 127.252 83.1045 127.44 83.5316C127.476 83.5968 127.505 83.6692 127.534 83.7343C127.751 84.2267 127.961 84.7335 128.157 85.233L128.316 85.6529C128.461 86.0367 128.591 86.3769 128.722 86.7896C128.78 86.9489 128.83 87.1082 128.881 87.2675C129.026 87.7019 129.156 88.1363 129.286 88.5779C129.286 88.6575 129.337 88.7372 129.359 88.8241C129.504 89.3381 129.634 89.8594 129.75 90.3734C129.75 90.5182 129.815 90.663 129.844 90.8078C129.931 91.1988 130.01 91.5897 130.083 91.9807C130.083 92.1472 130.148 92.3137 130.17 92.4803C130.249 92.9147 130.314 93.3563 130.372 93.798C130.372 93.8921 130.372 93.9789 130.409 94.0731C130.481 94.6016 130.532 95.1301 130.575 95.6586V96.093C130.604 96.4936 130.626 96.8918 130.64 97.2876C130.64 97.4542 130.64 97.6279 130.64 97.7944C130.64 98.2288 130.64 98.6632 130.64 99.1049V99.4017C130.64 99.5682 130.64 99.7348 130.64 99.894C130.64 100.379 130.597 100.871 130.553 101.342C130.553 101.574 130.503 101.805 130.481 102.066C130.437 102.476 130.387 102.889 130.329 103.304C130.329 103.557 130.249 103.811 130.206 104.028C130.141 104.426 130.068 104.824 129.989 105.215C129.938 105.469 129.88 105.722 129.829 105.939C129.735 106.345 129.634 106.75 129.525 107.149C129.453 107.402 129.388 107.655 129.315 107.916L129.142 108.473C129.033 108.828 128.917 109.197 128.794 109.53C128.729 109.726 128.656 109.914 128.584 110.11C128.454 110.472 128.309 110.834 128.157 111.196C128.092 111.362 128.027 111.529 127.954 111.695C127.73 112.217 127.498 112.738 127.23 113.252L130.09 107.424C130.343 106.91 130.575 106.388 130.814 105.867C130.886 105.701 130.952 105.534 131.017 105.367C131.169 105.005 131.306 104.643 131.444 104.281C131.516 104.093 131.581 103.898 131.654 103.71C131.777 103.355 131.893 102.986 132.001 102.652L132.175 102.088L132.262 101.813C132.305 101.653 132.342 101.487 132.385 101.32C132.486 100.922 132.595 100.524 132.682 100.118C132.74 99.8651 132.798 99.6189 132.848 99.3945C132.928 98.9963 133 98.5981 133.066 98.2071C133.109 97.9537 133.152 97.7003 133.189 97.4831C133.247 97.0704 133.297 96.6578 133.341 96.2378C133.341 96.0062 133.391 95.7745 133.413 95.5138C133.457 95.0288 133.478 94.5437 133.5 94.0658C133.5 93.9283 133.5 93.7907 133.5 93.6531V93.2694C133.5 92.835 133.5 92.3934 133.5 91.959C133.5 91.7925 133.5 91.6259 133.5 91.4594C133.5 91.0612 133.5 90.6558 133.435 90.2576C133.435 90.1128 133.435 89.968 133.435 89.8304C133.435 89.2947 133.341 88.7661 133.276 88.2376C133.276 88.1507 133.276 88.0566 133.239 87.9625C133.181 87.5281 133.116 87.0865 133.037 86.6448L132.95 86.1525C132.877 85.7615 132.798 85.3706 132.711 84.9796C132.711 84.8348 132.653 84.69 132.617 84.5452C132.494 84.0239 132.363 83.5027 132.226 82.9886C132.197 82.9079 132.173 82.8257 132.153 82.7425C132.023 82.3081 131.893 81.8737 131.748 81.4393C131.697 81.28 131.647 81.1207 131.589 80.9614C131.487 80.5415 131.35 80.165 131.212 79.7885Z" fill="black"/>
<path d="M74.494 132.192C73.77 131.844 73.0967 131.468 72.4161 131.113L71.808 130.773C71.3084 130.49 70.8161 130.208 70.36 129.911L69.7663 129.556C69.1364 129.165 68.5138 128.767 67.9056 128.355L67.8332 128.311C67.2009 127.877 66.5855 127.435 65.987 126.986L65.4513 126.581C65.0096 126.248 64.5752 125.9 64.1408 125.553L63.6195 125.126C63.0838 124.677 62.5553 124.228 62.0412 123.764L61.9254 123.663C61.3751 123.163 60.8394 122.657 60.3181 122.135L59.862 121.679C59.4783 121.296 59.138 120.905 58.7398 120.506L58.2837 120.014C57.8348 119.522 57.4004 119.022 56.9732 118.523L56.8429 118.363C56.3723 117.806 55.9234 117.241 55.489 116.669L55.1125 116.17C54.794 115.742 54.4827 115.308 54.1786 114.874L53.8021 114.331C53.4401 113.802 53.0781 113.274 52.7595 112.738L52.622 112.521C52.2455 111.92 51.898 111.304 51.536 110.689C51.4346 110.515 51.3405 110.334 51.2464 110.153C50.9906 109.695 50.7492 109.231 50.5224 108.763C50.421 108.568 50.3197 108.372 50.2255 108.177C49.9577 107.626 49.697 107.076 49.4436 106.519C49.4436 106.432 49.364 106.345 49.3205 106.251C49.0382 105.614 48.7703 104.962 48.5169 104.311C48.4445 104.13 48.3793 103.941 48.3142 103.76C48.1259 103.275 47.9522 102.783 47.7857 102.312C47.7133 102.102 47.6409 101.9 47.5757 101.69C47.3971 101.13 47.2233 100.565 47.0544 99.9955C47.0544 99.8941 46.9893 99.7855 46.9603 99.6769C46.7721 99.0108 46.6055 98.3375 46.4535 97.6642C46.4101 97.4759 46.3666 97.2877 46.3304 97.1067C46.2146 96.5999 46.1132 96.0859 46.0191 95.5791C46.0191 95.3691 45.9395 95.1519 45.9033 94.9419C45.8115 94.3676 45.7247 93.7956 45.6426 93.2261C45.6426 93.1102 45.6426 92.9871 45.5919 92.8713C45.5051 92.1907 45.4399 91.5029 45.3892 90.8151C45.3892 90.6269 45.3892 90.4459 45.3892 90.2577C45.353 89.7364 45.3241 89.2223 45.3096 88.7011V88.0495C45.3096 87.4847 45.3096 86.92 45.3096 86.3481V85.9571C45.3096 85.7471 45.3096 85.5372 45.3096 85.3272C45.3096 84.6973 45.3675 84.0602 45.4254 83.4303C45.4254 83.1335 45.4906 82.8294 45.5195 82.5253C45.5775 81.9896 45.6426 81.4538 45.715 80.9181C45.7657 80.5995 45.8164 80.2737 45.8743 79.9479C45.9612 79.4363 46.0553 78.9222 46.1567 78.4058C46.2218 78.08 46.2942 77.7542 46.3666 77.4284C46.4873 76.9071 46.6176 76.3858 46.7576 75.8645C46.8517 75.5315 46.9313 75.1985 47.0327 74.8727C47.1341 74.5469 47.1775 74.3876 47.2571 74.1487C47.4019 73.6925 47.5467 73.2364 47.706 72.7803C47.8001 72.5269 47.887 72.2807 47.9739 72.0563C48.1549 71.5784 48.3359 71.1151 48.5314 70.6083L48.792 69.9639C49.0889 69.2834 49.3929 68.6101 49.7187 67.944L46.8227 73.736C46.4969 74.4093 46.1929 75.0826 45.9033 75.7559C45.8091 75.9731 45.7223 76.1903 45.6354 76.4003C45.4399 76.8709 45.2589 77.3415 45.0851 77.8483C44.991 78.0944 44.9041 78.3478 44.8173 78.5723C44.658 79.0284 44.5059 79.4845 44.3611 79.9479C44.2815 80.1868 44.2091 80.433 44.1367 80.6719C44.1367 80.795 44.0571 80.9108 44.0281 81.0339C43.9991 81.157 43.9195 81.4538 43.8688 81.671C43.724 82.1923 43.5937 82.7063 43.4706 83.2276C43.3982 83.5534 43.3331 83.8792 43.2607 84.205C43.1593 84.7166 43.0652 85.2307 42.9783 85.7471C42.9204 86.0729 42.8697 86.3987 42.819 86.7245C42.7466 87.2603 42.6815 87.7961 42.6235 88.3318C42.6235 88.6287 42.5584 88.9327 42.5294 89.2368C42.4787 89.8667 42.4425 90.4966 42.4136 91.1265C42.4136 91.3075 42.4136 91.4812 42.4136 91.655C42.4136 91.6912 42.4136 91.7274 42.4136 91.7636V92.1545C42.4136 92.7193 42.4136 93.284 42.4136 93.8559C42.4136 94.0731 42.4136 94.2903 42.4136 94.5075C42.4136 95.0216 42.457 95.5429 42.4932 96.0569C42.4932 96.2451 42.4932 96.4334 42.4932 96.6144C42.5439 97.3384 42.6163 97.99 42.6959 98.6778C42.6959 98.7936 42.6959 98.9095 42.7466 99.0325C42.8263 99.6045 42.9131 100.176 43.0073 100.741C43.0435 100.958 43.0869 101.168 43.1231 101.386C43.2172 101.892 43.3186 102.399 43.4344 102.906C43.4344 103.094 43.5141 103.282 43.5575 103.471C43.7095 104.144 43.8833 104.817 44.0643 105.483L44.1584 105.795C44.3249 106.367 44.4987 106.931 44.6797 107.496C44.7449 107.706 44.8173 107.909 44.8897 108.112C45.0562 108.604 45.2299 109.096 45.4182 109.56C45.4833 109.748 45.5557 109.929 45.6209 110.117C45.8815 110.769 46.1422 111.413 46.4245 112.057C46.468 112.144 46.5114 112.231 46.5476 112.318C46.801 112.875 47.0617 113.433 47.3295 113.983L47.6264 114.57C47.8677 115.052 48.109 115.516 48.3504 115.96L48.64 116.495C48.9875 117.111 49.364 117.719 49.726 118.327L49.8635 118.544C50.1966 119.08 50.5441 119.609 50.9061 120.13L51.2826 120.673C51.5867 121.107 51.898 121.542 52.2165 121.969L52.593 122.468C53.0347 123.04 53.4835 123.612 53.9469 124.17L54.0772 124.322C54.5044 124.829 54.9388 125.328 55.3877 125.821L55.8438 126.306C56.213 126.704 56.5678 127.095 56.9732 127.486L57.4221 127.942C57.9506 128.456 58.4791 128.97 59.0294 129.462L59.138 129.564C59.6593 130.046 60.1878 130.502 60.7235 130.932L61.2521 131.359C61.6792 131.707 62.1136 132.047 62.5553 132.387L63.091 132.793C63.6919 133.242 64.3073 133.683 64.9372 134.11L65.0096 134.154C65.6178 134.566 66.2404 134.965 66.8703 135.356L67.464 135.718C67.9491 136.007 68.4414 136.297 68.912 136.572L69.5201 136.912C70.2007 137.289 70.8957 137.651 71.6053 137.998C96.6919 150.306 126.253 141.502 137.634 118.327L140.487 112.499C129.149 135.703 99.5879 144.507 74.494 132.192Z" fill="#E59C7F"/>
<path opacity="0.4" d="M74.494 132.192C73.77 131.844 73.0967 131.468 72.4161 131.113L71.808 130.773C71.3084 130.49 70.8161 130.208 70.36 129.911L69.7663 129.556C69.1364 129.165 68.5138 128.767 67.9056 128.355L67.8332 128.311C67.2009 127.877 66.5855 127.435 65.987 126.986L65.4513 126.581C65.0096 126.248 64.5752 125.9 64.1408 125.553L63.6195 125.126C63.0838 124.677 62.5553 124.228 62.0412 123.764L61.9254 123.663C61.3751 123.163 60.8394 122.657 60.3181 122.135L59.862 121.679C59.4783 121.296 59.138 120.905 58.7398 120.506L58.2837 120.014C57.8348 119.522 57.4004 119.022 56.9732 118.523L56.8429 118.363C56.3723 117.806 55.9234 117.241 55.489 116.669L55.1125 116.17C54.794 115.742 54.4827 115.308 54.1786 114.874L53.8021 114.331C53.4401 113.802 53.0781 113.274 52.7595 112.738L52.622 112.521C52.2455 111.92 51.898 111.304 51.536 110.689C51.4346 110.515 51.3405 110.334 51.2464 110.153C50.9906 109.695 50.7492 109.231 50.5224 108.763C50.421 108.568 50.3197 108.372 50.2255 108.177C49.9577 107.626 49.697 107.076 49.4436 106.519C49.4436 106.432 49.364 106.345 49.3205 106.251C49.0382 105.614 48.7703 104.962 48.5169 104.311C48.4445 104.13 48.3793 103.941 48.3142 103.76C48.1259 103.275 47.9522 102.783 47.7857 102.312C47.7133 102.102 47.6409 101.9 47.5757 101.69C47.3971 101.13 47.2233 100.565 47.0544 99.9955C47.0544 99.8941 46.9893 99.7855 46.9603 99.6769C46.7721 99.0108 46.6055 98.3375 46.4535 97.6642C46.4101 97.4759 46.3666 97.2877 46.3304 97.1067C46.2146 96.5999 46.1132 96.0859 46.0191 95.5791C46.0191 95.3691 45.9395 95.1519 45.9033 94.9419C45.8115 94.3676 45.7247 93.7956 45.6426 93.2261C45.6426 93.1102 45.6426 92.9871 45.5919 92.8713C45.5051 92.1907 45.4399 91.5029 45.3892 90.8151C45.3892 90.6269 45.3892 90.4459 45.3892 90.2577C45.353 89.7364 45.3241 89.2223 45.3096 88.7011V88.0495C45.3096 87.4847 45.3096 86.92 45.3096 86.3481V85.9571C45.3096 85.7471 45.3096 85.5372 45.3096 85.3272C45.3096 84.6973 45.3675 84.0602 45.4254 83.4303C45.4254 83.1335 45.4906 82.8294 45.5195 82.5253C45.5775 81.9896 45.6426 81.4538 45.715 80.9181C45.7657 80.5995 45.8164 80.2737 45.8743 79.9479C45.9612 79.4363 46.0553 78.9222 46.1567 78.4058C46.2218 78.08 46.2942 77.7542 46.3666 77.4284C46.4873 76.9071 46.6176 76.3858 46.7576 75.8645C46.8517 75.5315 46.9313 75.1985 47.0327 74.8727C47.1341 74.5469 47.1775 74.3876 47.2571 74.1487C47.4019 73.6925 47.5467 73.2364 47.706 72.7803C47.8001 72.5269 47.887 72.2807 47.9739 72.0563C48.1549 71.5784 48.3359 71.1151 48.5314 70.6083L48.792 69.9639C49.0889 69.2834 49.3929 68.6101 49.7187 67.944L46.8227 73.736C46.4969 74.4093 46.1929 75.0826 45.9033 75.7559C45.8091 75.9731 45.7223 76.1903 45.6354 76.4003C45.4399 76.8709 45.2589 77.3415 45.0851 77.8483C44.991 78.0944 44.9041 78.3478 44.8173 78.5723C44.658 79.0284 44.5059 79.4845 44.3611 79.9479C44.2815 80.1868 44.2091 80.433 44.1367 80.6719C44.1367 80.795 44.0571 80.9108 44.0281 81.0339C43.9991 81.157 43.9195 81.4538 43.8688 81.671C43.724 82.1923 43.5937 82.7063 43.4706 83.2276C43.3982 83.5534 43.3331 83.8792 43.2607 84.205C43.1593 84.7166 43.0652 85.2307 42.9783 85.7471C42.9204 86.0729 42.8697 86.3987 42.819 86.7245C42.7466 87.2603 42.6815 87.7961 42.6235 88.3318C42.6235 88.6287 42.5584 88.9327 42.5294 89.2368C42.4787 89.8667 42.4425 90.4966 42.4136 91.1265C42.4136 91.3075 42.4136 91.4812 42.4136 91.655C42.4136 91.6912 42.4136 91.7274 42.4136 91.7636V92.1545C42.4136 92.7193 42.4136 93.284 42.4136 93.8559C42.4136 94.0731 42.4136 94.2903 42.4136 94.5075C42.4136 95.0216 42.457 95.5429 42.4932 96.0569C42.4932 96.2451 42.4932 96.4334 42.4932 96.6144C42.5439 97.3384 42.6163 97.99 42.6959 98.6778C42.6959 98.7936 42.6959 98.9095 42.7466 99.0325C42.8263 99.6045 42.9131 100.176 43.0073 100.741C43.0435 100.958 43.0869 101.168 43.1231 101.386C43.2172 101.892 43.3186 102.399 43.4344 102.906C43.4344 103.094 43.5141 103.282 43.5575 103.471C43.7095 104.144 43.8833 104.817 44.0643 105.483L44.1584 105.795C44.3249 106.367 44.4987 106.931 44.6797 107.496C44.7449 107.706 44.8173 107.909 44.8897 108.112C45.0562 108.604 45.2299 109.096 45.4182 109.56C45.4833 109.748 45.5557 109.929 45.6209 110.117C45.8815 110.769 46.1422 111.413 46.4245 112.057C46.468 112.144 46.5114 112.231 46.5476 112.318C46.801 112.875 47.0617 113.433 47.3295 113.983L47.6264 114.57C47.8677 115.052 48.109 115.516 48.3504 115.96L48.64 116.495C48.9875 117.111 49.364 117.719 49.726 118.327L49.8635 118.544C50.1966 119.08 50.5441 119.609 50.9061 120.13L51.2826 120.673C51.5867 121.107 51.898 121.542 52.2165 121.969L52.593 122.468C53.0347 123.04 53.4835 123.612 53.9469 124.17L54.0772 124.322C54.5044 124.829 54.9388 125.328 55.3877 125.821L55.8438 126.306C56.213 126.704 56.5678 127.095 56.9732 127.486L57.4221 127.942C57.9506 128.456 58.4791 128.97 59.0294 129.462L59.138 129.564C59.6593 130.046 60.1878 130.502 60.7235 130.932L61.2521 131.359C61.6792 131.707 62.1136 132.047 62.5553 132.387L63.091 132.793C63.6919 133.242 64.3073 133.683 64.9372 134.11L65.0096 134.154C65.6178 134.566 66.2404 134.965 66.8703 135.356L67.464 135.718C67.9491 136.007 68.4414 136.297 68.912 136.572L69.5201 136.912C70.2007 137.289 70.8957 137.651 71.6053 137.998C96.6919 150.306 126.253 141.502 137.634 118.327L140.487 112.499C129.149 135.703 99.5879 144.507 74.494 132.192Z" fill="black"/>
<path d="M64.025 49.0692L63.6268 48.4611C65.4223 47.2872 67.2917 46.2304 69.2233 45.2972L69.5419 45.9488C67.636 46.8659 65.793 47.9083 64.025 49.0692ZM74.9646 43.7117L74.7257 43.0311C83.3433 40.115 92.5588 39.4276 101.514 41.0329L101.391 41.7569C92.5578 40.1739 83.4684 40.8463 74.9646 43.7117Z" fill="#E59C7F"/>
<path d="M49.6607 67.9439C61.0348 44.7759 90.5885 35.972 115.682 48.2873C140.776 60.6025 151.882 89.367 140.523 112.535C129.163 135.703 99.5878 144.521 74.4939 132.206C49.4001 119.891 38.2867 91.1119 49.6607 67.9439ZM130.141 107.438C138.908 89.5697 130.336 67.3647 110.976 57.8658C91.6165 48.3669 68.8105 55.1653 60.0429 73.0698C51.2753 90.9743 59.8547 113.143 79.2072 122.642C98.5597 132.141 121.358 125.35 130.141 107.438Z" fill="#E59C7F"/>
<path d="M183.304 128.955L179.684 136.282C179.519 136.618 179.288 136.917 179.006 137.162C178.723 137.407 178.394 137.593 178.038 137.708C177.682 137.824 177.307 137.867 176.934 137.834C176.562 137.802 176.199 137.695 175.869 137.52L129.315 113.006L134.072 103.362L181.943 125.183C182.284 125.337 182.59 125.558 182.844 125.833C183.098 126.107 183.294 126.43 183.421 126.782C183.548 127.133 183.603 127.507 183.583 127.88C183.563 128.254 183.468 128.619 183.304 128.955Z" fill="#E59C7F"/>
<path opacity="0.1" d="M130.807 107.764C139.748 89.5554 131.01 66.9304 111.259 57.2505C91.5081 47.5707 68.2894 54.4993 59.348 72.7079C50.4066 90.9165 59.1597 113.549 78.896 123.229C98.6322 132.909 121.858 125.994 130.8 107.764" fill="white"/>
<path opacity="0.1" d="M111.28 57.2361C106.418 54.8409 101.141 53.3984 95.7362 52.9862L56.2854 82.5037C55.5054 87.581 55.8289 92.7667 57.2339 97.7077L111.28 57.2361Z" fill="white"/>
<path d="M169.657 115.417C166.717 114.36 164.697 116.314 162.663 117.328C162.315 117.502 162.417 118.53 163.112 118.631C163.531 118.73 163.965 118.743 164.39 118.67C164.814 118.597 165.219 118.438 165.58 118.204C166.304 118.87 168.896 119.985 170.793 117.98C170.74 117.015 170.335 116.104 169.657 115.417Z" fill="#B37B76"/>
<path d="M208.499 46.7887H206.82C206.79 46.7894 206.76 46.7833 206.733 46.7709C206.706 46.7585 206.682 46.7401 206.663 46.717C206.644 46.694 206.631 46.6669 206.624 46.6379C206.618 46.6089 206.617 46.5788 206.624 46.5497L207.464 42.6836C207.474 42.6389 207.498 42.5988 207.534 42.5699C207.569 42.5409 207.614 42.5249 207.659 42.5243C207.705 42.5238 207.749 42.5396 207.783 42.5688C207.818 42.5981 207.841 42.6388 207.848 42.6836L208.687 46.5497C208.694 46.5784 208.695 46.6083 208.688 46.6371C208.682 46.666 208.669 46.693 208.651 46.7163C208.634 46.7397 208.611 46.7586 208.584 46.7712C208.558 46.7838 208.529 46.7898 208.499 46.7887ZM207.051 46.3977H208.239L207.645 43.661L207.051 46.3977Z" fill="white"/>
</svg>
