<svg width="656" height="344" viewBox="0 0 656 344" fill="none" xmlns="http://www.w3.org/2000/svg">
<path d="M583.624 165.254C583.624 165.254 588.764 163.389 592.092 168.612C595.42 173.834 593.632 173.337 595.246 175.948C596.86 178.559 597.655 185.995 598.201 189.999C603.913 230.96 535.618 234.267 562.29 182.066C564.799 177.167 566.91 174.232 569.145 169.009C571.405 163.787 580.917 163.986 583.624 165.254Z" fill="#B75742"/>
<path d="M569.021 203.503L562.142 201.091C562.142 201.091 559.41 204.597 558.59 213.352C557.771 222.106 558.59 227.254 558.59 227.254H566.388L569.021 203.503Z" fill="#355389"/>
<path d="M582.804 198.803C580.469 199.052 563.085 197.386 562.116 201.091C556.901 220.987 564.078 248.443 565.891 250.283C567.729 252.124 597.58 246.155 597.58 246.155C597.58 246.155 602.299 196.789 582.804 198.803Z" fill="#466EB6"/>
<path d="M606.521 178.41C606.521 178.41 604.609 177.49 602.845 174.257C601.728 172.168 598.4 169.507 599.791 169.084C601.181 168.661 603.292 172.168 603.69 171.148C604.087 170.154 600.113 162.543 601.38 162.145C602.647 161.748 605.925 169.159 606.272 168.239C606.62 167.343 602.92 160.877 604.683 160.33C606.446 159.783 608.383 168.288 609.327 167.99C610.271 167.691 608.88 161.2 610.321 160.753C611.761 160.305 611.537 168.786 612.059 168.537C612.332 168.413 613.599 164.309 614.369 164.608C615.238 164.956 612.879 173.362 613.922 175.227C614.965 177.092 623.384 200.146 620.503 203.031C617.374 206.165 597.406 213.377 593.234 212.133C589.062 210.89 586.678 206.762 587.671 204.225C588.665 201.688 608.408 195.968 608.706 195.172C609.104 194.426 606.521 178.41 606.521 178.41Z" fill="#F7A491"/>
<path d="M608.135 171.123C608.731 171.098 609.327 171.223 609.899 171.447C609.973 171.496 611.885 172.068 612.68 174.157C611.786 173.088 610.793 171.894 608.135 171.123Z" fill="#F48C7F"/>
<path d="M649.51 335.785H6.48962C5.4714 335.785 4.65186 336.581 4.65186 337.551C4.65186 338.521 5.4714 339.317 6.48962 339.317H649.535C650.553 339.317 651.373 338.521 651.373 337.551C651.348 336.581 650.528 335.785 649.51 335.785Z" fill="#5E3525"/>
<path d="M33.8255 204.995C33.8255 204.995 31.0688 239.141 31.0688 242.125C31.0688 245.085 42.8405 245.931 42.8405 245.931L46.4415 210.889L33.8255 204.995Z" fill="#466EB6"/>
<path d="M51.3592 196.689C51.3592 196.689 43.7349 192.586 37.4269 196.341C31.1437 200.096 29.4053 222.131 29.4053 222.131L49.5711 224.543L51.3592 196.689Z" fill="#86B1F2"/>
<path d="M97.9985 309.125C97.9985 309.125 94.1492 324.892 91.2683 327.354C88.3875 329.816 79.0248 334.567 81.4586 335.064C83.9173 335.561 102.071 335.984 101.575 332.95C101.078 329.916 100.556 327.976 100.556 327.976L105.35 316.71L97.9985 309.125Z" fill="#D89E68"/>
<path d="M80.2416 335.735C84.6621 336.182 97.601 336.63 101.376 336.157C101.376 336.157 102.071 336.008 101.575 332.974C101.45 332.228 101.326 331.556 101.202 330.96C97.7749 331.855 90.3493 329.94 87.3939 329.542C84.1903 331.084 80.5892 333.372 79.422 333.571C77.7581 333.845 77.7581 335.486 80.2416 335.735Z" fill="#341954"/>
<path d="M140.367 322.33C140.367 322.33 140.764 326.309 140.764 328.075C140.764 329.841 139.125 334.79 139.895 335.536C140.64 336.282 162.296 336.208 162.296 335.486C162.296 334.765 158.471 332.601 153.281 331.134C148.09 329.642 146.327 323.897 147.668 320.564L140.367 322.33Z" fill="#D89E68"/>
<path d="M162.619 335.561C162.619 334.89 159.067 332.85 154.473 331.458C149.58 333.124 142.776 331.756 140.218 331.259C139.448 333.298 139.199 335.238 139.597 335.636C140.367 336.382 162.619 336.258 162.619 335.561Z" fill="#341954"/>
<path d="M116.873 255.729L112.999 259.186C112.999 259.186 108.628 271.024 108.379 271.82C108.032 272.914 93.876 318.575 93.876 318.575L103.735 322.131C103.735 322.131 113.52 303.056 115.134 296.441C116.749 289.826 132.941 262.121 132.941 262.121L116.873 255.729Z" fill="#86B1F2"/>
<path d="M134.009 262.743L138.727 323.251H149.655C149.655 323.251 153.579 277.963 152.213 262.071L134.009 262.743Z" fill="#86B1F2"/>
<path d="M75.4486 220.589C75.4486 220.589 78.7764 236.854 81.6821 239.763C83.346 241.43 87.8659 248.144 91.3428 248.144C94.1243 248.144 95.7634 248.343 96.2352 248.343C97.3031 248.343 96.111 254.959 95.0928 255.978C95.0928 255.978 94.7451 256.998 92.7335 256.998C90.6971 256.998 79.9685 249.637 76.74 246.379C73.5115 243.146 67.5015 225.438 67.5015 225.438L75.4486 220.589Z" fill="#F7A491"/>
<path d="M128.744 200.171C128.744 200.171 124.572 205.045 119.034 213.277C113.495 221.509 99.3645 244.414 97.8496 245.931C97.4771 246.304 96.3347 247.025 96.3347 247.025C96.3347 247.025 94.3479 246.602 93.28 247C92.237 247.373 90.8214 249.413 91.3181 249.91C91.8148 250.408 93.7271 248.741 94.2983 248.766C94.8695 248.791 94.944 248.791 94.944 249.089C94.944 249.413 92.5847 250.706 91.9141 250.88C91.2436 251.054 89.4555 253.79 89.8032 254.71C90.1509 255.63 90.126 255.929 90.9704 255.929C91.8148 255.929 91.9638 256.6 92.684 256.6C93.4042 256.6 93.5781 255.705 94.3976 256.053C95.2171 256.401 95.4407 256.327 97.949 254.785C100.457 253.243 105.176 247.548 107.535 245.185C109.894 242.822 131.476 219.271 131.476 219.271L128.744 200.171Z" fill="#D89E68"/>
<path d="M137.908 163.936C137.908 163.936 132.767 162.071 129.439 167.293C126.112 172.516 127.9 172.019 126.285 174.63C124.671 177.241 120.449 176.694 120.449 180.748C120.449 184.802 122.337 185.423 122.337 185.423C122.337 185.423 120.623 188.582 122.51 191.815C124.398 195.048 129.117 197.858 133.065 197.411C133.065 197.411 138.976 200.668 144.936 199.127C150.872 197.585 148.81 197.585 151.244 197.585C153.678 197.585 160.234 194.252 159.167 189.378C159.167 189.378 163.165 184.627 159.291 180.723C155.416 176.843 154.671 172.889 152.436 167.666C150.127 162.469 140.615 162.668 137.908 163.936Z" fill="#5E3525"/>
<path d="M64.6455 198.33C65.4154 198.604 68.5446 200.817 70.3575 204.349C72.1704 207.855 76.9883 222.553 76.9883 222.553L69.0661 225.463L64.6455 198.33Z" fill="#4CBFA0"/>
<path d="M24.7857 319.42C24.7857 319.42 23.4695 324.071 22.4512 325.091C21.4082 326.135 17.981 330.139 18.8254 332.129C19.6697 334.118 40.5806 336.978 41.3504 336.182C42.1451 335.387 37.7494 332.029 35.2411 329.965C32.7328 327.901 30.9447 325.364 32.0126 322.305C33.0556 319.221 33.0556 319.545 33.0556 319.221C33.0805 318.923 24.7857 319.42 24.7857 319.42Z" fill="#F7A491"/>
<path d="M41.3754 336.183C42.3191 335.462 39.3886 332.303 35.1171 329.841C33.329 329.841 30.9697 329.717 28.958 329.219C25.804 328.423 23.3951 325.688 22.6749 324.817C22.6004 324.917 17.5341 329.791 18.5275 332.129C19.3718 334.143 39.488 337.6 41.3754 336.183Z" fill="#355389"/>
<path d="M59.4799 321.659C59.4799 321.659 59.8773 326.434 59.0826 327.653C58.2879 328.896 55.5561 333.796 57.0958 335.313C58.4866 336.68 77.6093 335.81 78.2301 334.865C78.8262 333.92 75.548 331.085 72.6671 329.617C69.7863 328.15 67.4767 326.061 67.8244 322.828C68.1721 319.595 68.2466 319.893 68.1721 319.595C68.0976 319.346 59.4799 321.659 59.4799 321.659Z" fill="#F7A491"/>
<path d="M80.5894 335.661C81.5828 335.014 77.1871 331.035 72.4933 329.567C70.7549 329.965 68.4204 330.363 66.3343 330.314C63.081 330.239 60.1256 328.1 59.2316 327.379C59.1819 327.478 54.8358 333.82 56.7729 335.412C58.3127 336.655 79.0497 336.606 80.5894 335.661Z" fill="#355389"/>
<path d="M60.871 254.188L48.5033 290.05L34.3226 323.251L22.4517 320.266C22.4517 320.266 26.7481 297.237 30.7713 290.025C33.826 284.553 35.9369 253.168 35.9369 253.168L60.871 254.188Z" fill="#B75742"/>
<path d="M54.935 260.231L59.2066 323.276H69.3391C69.3391 323.276 73.7597 257.222 72.1455 250.955C70.5312 244.663 53.6685 246.08 53.6685 246.08L54.935 260.231Z" fill="#B75742"/>
<path d="M64.6457 198.33C64.6457 198.33 51.6075 194.426 49.5959 194.674C47.3856 194.948 42.0461 197.783 42.0461 197.783C42.0461 197.783 42.369 220.464 41.4252 226.881C40.4815 233.297 33.8755 253.839 33.8755 253.839C33.8755 253.839 43.1885 259.236 58.8344 257.495C74.4803 255.729 73.4124 251.949 73.4124 251.949C73.4124 251.949 71.9223 229.243 70.4322 219.246C68.9669 209.223 64.6457 198.33 64.6457 198.33Z" fill="#77D9BE"/>
<path d="M153.181 201.787C153.181 201.787 146.227 199.972 138.33 199.524C134.232 199.3 128.744 200.171 128.744 200.171C128.744 200.171 123.752 211.387 122.262 220.589C120.772 229.79 112.676 259.236 112.676 259.236C112.676 259.236 129.141 271.944 153.156 263.563V201.787H153.181Z" fill="#FFBFA6"/>
<path d="M134.456 191.74C134.456 191.74 134.679 198.927 134.009 199.599C133.338 200.27 132.394 201.39 133.388 203.106C134.381 204.822 138.678 203.727 140.664 202.757C142.577 201.812 143.818 200.071 143.818 200.071L142.825 188.706L134.456 191.74Z" fill="#D89E68"/>
<path d="M137.312 194.724C138.703 194.251 141.112 193.306 142.974 190.272L142.825 188.681L134.456 191.74C134.456 191.74 134.506 193.481 134.481 195.346C135.648 195.296 136.666 194.948 137.312 194.724Z" fill="#AD794E"/>
<path d="M21.4578 166.522C21.4578 166.522 20.7624 169.705 24.0902 170.824C27.4181 171.944 29.4794 160.23 31.3668 157.917C33.2542 155.604 38.9911 154.982 41.9712 159.583C43.6103 162.12 44.1318 163.239 44.256 163.712C44.3554 164.11 44.2064 164.085 44.2064 164.085L43.3123 165.776C43.3123 165.776 40.4315 164.035 39.3388 167.218C38.246 170.427 41.4497 175.649 38.7179 180.001C35.9612 184.353 30.9198 181.27 30.9198 181.27C26.7476 184.08 21.9296 179.777 20.365 175.724C18.8253 171.67 21.4578 166.522 21.4578 166.522Z" fill="#F7CC7F"/>
<path d="M54.2647 182.737L53.8177 187.438L49.6206 194.675C49.6206 194.675 57.9154 204.722 60.4734 202.31C61.0446 201.763 62.485 191.143 62.485 191.143L54.2647 182.737Z" fill="#F7A491"/>
<path d="M53.7926 187.438L52.9233 189.054C55.5062 191.367 58.834 193.456 61.9632 194.675C62.2612 192.735 62.4599 191.168 62.4599 191.168L54.2644 182.737L53.7926 187.438Z" fill="#F48C7F"/>
<path d="M62.7831 167.268C62.7831 167.268 64.9685 169.257 65.7881 170.376C70.5812 177.066 66.7069 190.247 64.1986 191.342C60.3989 193.008 55.4817 190.77 49.9187 186.989C44.3557 183.209 42.6173 177.116 47.6836 171.794C52.7747 166.497 62.7831 167.268 62.7831 167.268Z" fill="#F7A491"/>
<path d="M44.3554 166.099L45.8703 164.657C51.8058 164.657 56.5244 161.075 63.2049 164.681C67.6007 167.069 65.7878 170.401 65.7878 170.401C49.4962 170.401 55.382 183.259 53.3952 188.357C51.3836 193.456 38.9414 182.414 44.3554 166.099Z" fill="#F7CC7F"/>
<path d="M55.7298 180.573C55.7298 180.573 55.5063 176.345 52.9235 177.191C50.3407 178.036 52.3523 184.378 54.4881 184.154C56.6487 183.931 55.7298 180.573 55.7298 180.573Z" fill="#F7A491"/>
<path d="M144.315 180.573C144.315 180.573 144.514 176.346 147.097 177.166C149.679 177.987 147.717 184.354 145.557 184.13C143.421 183.931 144.315 180.573 144.315 180.573Z" fill="#D89E68"/>
<path d="M43.9334 162.916C43.9334 162.916 46.3921 164.433 47.3855 164.309C48.3789 164.184 45.8706 167.393 44.5543 167.716C43.2381 168.039 43.6851 166.771 43.4119 166.323C43.1387 165.875 42.0957 166.224 41.8722 165.9C41.301 165.179 42.7662 163.065 43.9334 162.916Z" fill="#50BFA5"/>
<path d="M89.6787 255.729C89.6787 255.729 91.9387 252.223 92.6837 252.049C93.4288 251.875 92.5099 254.436 92.5099 254.909C92.5099 255.381 93.8509 251.303 94.596 251.303C95.341 251.303 95.4404 251.85 95.1423 252.894C94.8443 253.939 94.1241 255.282 94.4718 255.282C94.8195 255.282 95.7632 250.731 96.3344 251.303C96.8808 251.85 96.6821 255.58 95.6142 256.625C94.5712 257.669 91.4668 257.023 89.6787 255.729Z" fill="#F7A491"/>
<path d="M130.01 228.497C130.929 228.969 132.096 228.347 132.568 227.477C133.214 226.258 132.817 224.99 131.898 224.542C130.929 224.095 129.836 224.518 129.24 225.686C128.694 226.781 129.067 228.099 130.01 228.497ZM123.702 220.737C124.075 220.339 125.192 218.748 127.055 219.394C128.694 219.942 129.315 221.608 129.787 222.379C129.663 221.608 129.34 220.29 129.712 218.798C130.681 214.818 135.524 215.191 135.449 218.872C135.424 220.315 134.903 221.21 134.158 222.752C134.456 222.428 135.35 221.334 136.592 220.712C140.168 218.872 142.105 223.374 139.572 225.761C138.255 227.005 136.591 227.029 135.573 227.154C136.467 227.402 136.989 227.477 137.858 228.024C142.328 230.859 136.095 238.544 132.742 231.158C132.742 231.158 132.717 231.158 132.717 231.133C132.866 232.177 133.164 233.471 132.742 234.938C131.575 238.942 126.235 238.246 127.179 233.694C127.477 232.277 128.421 230.76 128.471 230.66C127.825 231.357 126.881 232.476 125.515 233.023C121.989 234.416 120.3 229.417 123.553 227.303C125.019 226.358 126.459 226.507 126.956 226.358C125.739 226.059 124.621 225.736 123.777 224.716C122.659 223.349 123.255 222.006 123.23 221.807C123.355 221.459 123.528 221.11 123.702 220.737Z" fill="#EF7043"/>
<path d="M136.17 166.796C136.17 166.796 132.121 166.696 130.06 169.855C127.999 173.013 125.739 182.016 129.166 188.233C132.593 194.451 136.939 192.909 138.752 192.287C140.54 191.665 144.117 190.248 145.905 184.453C147.693 178.634 146.377 165.577 136.17 166.796Z" fill="#D89E68"/>
<path d="M44.1571 196.738C44.1571 196.738 47.0876 196.291 49.5959 205.841C52.4519 216.659 49.3723 227.85 44.6538 230.685C39.9352 233.521 37.998 232.973 37.998 232.973L38.7431 239.639C38.7431 239.639 52.6754 236.505 54.5876 224.567C57.692 204.995 48.528 194.923 48.528 194.923C48.528 194.923 46.7895 195.196 46.268 195.42C45.672 195.644 44.1571 196.738 44.1571 196.738Z" fill="#466EB6"/>
<path d="M36.9302 219.32C36.9302 219.32 36.9302 230.86 36.9302 233.272C36.9302 235.709 39.7117 252.173 43.1389 257.819C46.566 263.464 51.1853 269.756 52.1539 270.104C53.1224 270.452 55.2085 271.795 56.2764 270.701C57.3443 269.632 58.2135 270.104 59.5546 269.532C60.8957 268.935 59.3808 267.02 57.4933 265.105C55.6059 263.215 55.2085 262.768 55.5066 262.444C55.8294 262.121 57.3443 263.887 58.1639 263.613C58.9834 263.34 57.6672 260.504 55.5562 259.51C53.4453 258.515 50.0677 256.575 49.7449 255.555C49.422 254.511 49.422 254.784 49.422 254.511C49.422 254.237 47.0379 237.898 47.0379 234.69C47.0379 231.482 46.0942 221.086 46.0942 221.086L36.9302 219.32Z" fill="#F7A491"/>
<path d="M43.3126 197.236C42.0957 197.386 38.7678 198.604 37.5757 202.559C36.4085 206.513 33.329 217.779 33.8754 223.275C33.8754 223.275 47.0129 224.991 47.0129 224.444C47.0129 223.897 49.8938 209.796 48.4533 203.628C47.2116 198.256 45.4483 196.963 43.3126 197.236Z" fill="#4CBFA0"/>
<path d="M62.6089 197.733L71.7481 230.586C71.3507 226.284 70.9037 222.205 70.4567 219.221C68.9666 209.223 64.6453 198.33 64.6453 198.33C64.6453 198.33 63.8506 198.082 62.6089 197.733Z" fill="#466EB6"/>
<path d="M115.83 263.986H141.112V229.243L115.83 230.586V263.986Z" fill="#2B0067"/>
<path d="M115.83 227.875H139.969C140.59 227.875 141.087 228.472 141.087 229.218C141.087 229.964 140.59 230.561 139.969 230.561H115.83H115.855C117.519 229.815 117.519 228.621 115.83 227.875Z" fill="#2B0067"/>
<path d="M116.525 228.273H139.15C139.597 228.273 139.945 228.696 139.945 229.218C139.945 229.741 139.597 230.163 139.15 230.163H116.525C117.295 229.591 117.295 228.87 116.525 228.273Z" fill="#FAE0B2"/>
<path d="M153.181 201.787C153.181 201.787 151.294 203.677 149.258 210.889C147.221 218.102 146.203 234.938 144.44 236.704C142.676 238.47 131.203 247.597 129.141 247.299C127.08 246.975 122.436 241.579 120.996 241.579C119.555 241.579 119.729 242.897 120.449 243.618C121.169 244.339 122.039 245.185 121.616 245.607C121.194 246.03 121.194 246.03 121.194 246.03C121.194 246.03 114.787 244.339 113.694 244.961C112.626 245.583 114.737 247.075 114.737 248.169C114.737 249.238 114.464 249.238 114.613 250.432C114.737 251.626 115.035 252.571 115.606 253.143C116.178 253.715 123.256 255.754 130.184 254.809C137.113 253.864 145.557 250.532 151.815 242.772C158.074 235.013 156.807 210.666 156.683 208.253C156.335 202.061 153.181 201.787 153.181 201.787Z" fill="#D89E68"/>
<path d="M507.207 69.7296L512.472 68.6851L513.738 63.363L519.723 62.6169L519.351 56.5238L526.056 55.3798L526.404 49.7344L532.687 47.5459L533.507 49.9334L528.813 51.5499L528.465 57.5186L522.008 58.6378L522.381 64.8303L515.799 65.651L514.533 70.8488L509.665 71.8187L509.566 75.3999L507.033 75.3253L507.207 69.7296Z" fill="#50BFA5"/>
<path d="M477.256 113.525L480.386 107.78L477.43 101.936C477.083 101.264 477.654 100.518 478.399 100.643L484.831 101.861L489.475 97.2355C489.997 96.7132 490.916 97.0116 490.99 97.7577L491.834 104.249L497.646 107.233C498.316 107.581 498.291 108.526 497.621 108.85L491.71 111.66L490.667 118.126C490.543 118.872 489.649 119.146 489.127 118.599L484.632 113.848L478.175 114.843C477.455 114.943 476.909 114.172 477.256 113.525Z" fill="#F47458"/>
<path d="M55.2399 95.1959L59.0892 89.8987L56.9286 83.731C56.6803 83.0347 57.3508 82.3383 58.0462 82.587L64.2549 84.6263L69.4453 80.6472C70.0413 80.1995 70.8857 80.6223 70.8857 81.3684V87.9091L76.2748 91.6396C76.8957 92.0624 76.7467 93.0074 76.0513 93.2312L69.8427 95.2457L67.9801 101.513C67.7565 102.234 66.8377 102.383 66.3906 101.786L62.5164 96.4643L55.9849 96.6135C55.2399 96.6384 54.8177 95.7928 55.2399 95.1959Z" fill="#F7CC7F"/>
<path d="M177.65 53.963C177.402 50.332 180.134 47.1736 183.76 46.9249C187.386 46.6762 190.54 49.4118 190.788 53.0428C191.036 56.6738 188.305 59.8322 184.679 60.0809C181.028 60.3296 177.899 57.594 177.65 53.963Z" fill="#F7CC7F"/>
<path d="M188.801 72.5656C188.404 70.6507 188.18 68.6114 187.51 66.771C186.939 65.1793 184.48 65.6767 184.604 67.3679C184.753 69.4569 185.399 71.5709 185.846 73.6102C186.02 74.4309 187.112 74.8288 187.833 74.5552C188.727 74.2568 188.975 73.3863 188.801 72.5656Z" fill="#F7CC7F"/>
<path d="M200.076 64.4075C197.891 63.1142 196.003 61.5226 193.992 60.0055C192.427 58.8118 190.714 60.8511 192.03 62.2687C193.892 64.308 196.326 65.8748 198.686 67.2675C199.431 67.7151 200.474 67.2675 200.821 66.5462C201.219 65.7255 200.821 64.8302 200.076 64.4075Z" fill="#F7CC7F"/>
<path d="M195.954 52.5947C195.457 52.9926 195.358 53.5646 195.656 54.1117C196.401 55.4547 198.264 55.3801 199.605 55.3303C200.995 55.2806 202.386 55.007 203.702 54.5594C205.639 53.8879 204.596 50.8787 202.634 51.5502C198.81 52.8683 197.37 51.4507 195.954 52.5947Z" fill="#F7CC7F"/>
<path d="M193.842 39.7868C191.93 42.597 190.366 43.5421 190.614 45.084C190.763 45.9793 191.458 46.427 192.327 46.228C193.346 46.0042 193.917 44.9099 194.538 44.139C195.134 43.3929 195.705 42.6717 196.227 41.8758C196.698 41.1546 196.773 40.2344 196.078 39.6376C195.506 39.1153 194.339 39.0656 193.842 39.7868Z" fill="#F7CC7F"/>
<path d="M186.392 39.2896C185.771 37.5985 185.647 36.9768 184.852 36.1809C184.157 35.4846 182.717 35.9322 182.617 36.9519C182.493 38.1208 182.742 38.5684 183.387 40.359C183.685 41.1797 184.604 41.6274 185.424 41.329C186.218 41.0554 186.69 40.1103 186.392 39.2896Z" fill="#F7CC7F"/>
<path d="M178.321 43.4181C175.564 41.3291 174.993 40.7322 173.925 40.8317C173.28 40.9063 172.584 41.5031 172.708 42.2244C172.957 43.5425 173.727 43.9155 176.285 45.7559C176.955 46.2533 177.899 46.2781 178.495 45.6067C179.016 45.0098 179.016 43.9404 178.321 43.4181Z" fill="#F7CC7F"/>
<path d="M167.245 53.043C166.152 53.615 166.599 55.505 167.766 55.6543C168.884 55.8035 169.331 55.6294 174.819 54.6097C175.664 54.4605 176.359 53.8388 176.309 52.9186C176.26 52.1228 175.465 51.2772 174.621 51.4264C168.909 52.471 168.338 52.471 167.245 53.043Z" fill="#F7CC7F"/>
<path d="M175.838 62.021C172.833 64.9307 172.386 64.4085 171.218 66.1991C170.672 67.0198 171.566 68.313 172.51 68.1389C173.727 67.9151 174.049 67.7161 175.639 66.4478C176.558 65.7265 177.427 64.9307 178.271 64.1349C178.892 63.538 178.718 62.394 178.122 61.8717C177.402 61.25 176.458 61.4241 175.838 62.021Z" fill="#F7CC7F"/>
<path d="M126.243 55.4048L131.483 51.9479L129.422 47.7698L134.463 44.1886L133.097 39.8364L136.524 36.6531L135.183 35.335L130.589 39.6125L131.88 43.716L126.64 47.4714L128.652 51.5749L123.933 54.7085L126.243 55.4048Z" fill="#86B1F2"/>
<path d="M543.317 88.1334L537.207 86.7158L535.593 91.0929L529.533 89.8991L527.323 93.8783L522.654 93.555L522.629 95.4451L528.888 95.843L530.974 92.0877L537.282 93.3063L538.871 89.0287L544.409 90.3219L543.317 88.1334Z" fill="#F7CC7F"/>
<path d="M118.718 89.9489C118.718 89.9489 120.63 87.8101 123.983 88.1334C126.963 88.4318 128.801 90.9934 128.528 93.7539C128.23 96.9621 125.051 100.469 117.451 103.055C110.498 99.0512 108.064 94.9974 108.362 91.7892C108.635 89.0287 110.92 86.8402 113.9 87.1386C117.253 87.4619 118.718 89.9489 118.718 89.9489Z" fill="#F48C7F"/>
<path d="M93.933 88.8296C96.789 89.5757 99.1234 90.0482 101.433 90.3715C102.203 90.4959 103.494 90.8938 104.115 90.3218C104.438 90.0233 104.537 89.6254 104.289 89.2275C103.817 88.5063 102.625 88.5809 101.855 88.4814C99.5208 88.1332 96.8883 87.6359 94.2558 86.9644C93.7591 86.84 93.2376 87.2628 93.1631 87.7353C93.0638 88.2576 93.4363 88.6804 93.933 88.8296Z" fill="#F48C7F"/>
<path d="M132.129 100.668C133.246 100.842 134.364 101.016 135.481 101.19C136.549 101.339 137.791 101.737 138.859 101.513C139.654 101.364 139.877 100.369 139.132 99.9712C138.164 99.4489 136.897 99.4489 135.804 99.2997C134.687 99.1256 133.569 98.9764 132.427 98.8272C131.26 98.6531 130.937 100.469 132.129 100.668Z" fill="#F48C7F"/>
<path d="M102.054 105.069C103.817 102.931 105.63 102.458 107.071 101.737C107.841 101.364 107.617 100.27 106.723 100.27C104.314 100.294 102.005 102.085 100.564 103.876C99.8439 104.821 101.284 105.99 102.054 105.069Z" fill="#F48C7F"/>
<path d="M114.074 112.953C114.198 111.785 114.546 110.69 115.142 109.671C115.514 109.049 117.129 107.408 115.862 106.86C114.67 106.338 113.701 108.278 113.279 109.099C112.708 110.193 112.36 111.412 112.236 112.63C112.087 113.824 113.925 114.147 114.074 112.953Z" fill="#F48C7F"/>
<path d="M124.629 107.332C125.175 107.879 125.746 108.427 126.293 108.974C126.839 109.521 127.336 110.267 128.18 110.217C128.652 110.192 128.9 109.77 128.925 109.322C128.95 108.551 128.031 107.954 127.509 107.457C126.963 106.91 126.392 106.362 125.846 105.815C125.473 105.442 124.802 105.567 124.504 105.964C124.157 106.412 124.256 106.959 124.629 107.332Z" fill="#F48C7F"/>
<path d="M112.063 81.8909C110.548 75.7978 110.597 75.7729 110.2 75.2258C109.778 74.6787 108.834 74.8528 108.71 75.574C108.611 76.2703 108.635 76.1709 110.25 82.5624C110.374 83.0598 111.044 83.3085 111.491 83.1344C112.038 82.9354 112.187 82.4131 112.063 81.8909Z" fill="#F48C7F"/>
<path d="M122.294 83.3832C122.816 82.4879 123.238 81.5428 123.536 80.5729C123.834 79.6527 124.405 78.2849 123.636 77.5139C123.462 77.3398 123.114 77.2901 122.915 77.3896C122.046 77.8124 122.021 79.1056 121.723 79.9512C121.425 80.8713 121.028 81.7667 120.581 82.6122C120.333 83.0599 120.606 83.6568 121.053 83.8557C121.549 84.0795 122.021 83.8308 122.294 83.3832Z" fill="#F48C7F"/>
<path d="M136.574 86.5166C136.798 86.0938 136.525 85.6461 136.177 85.4223C135.457 84.9995 134.314 85.5964 133.619 85.8699C132.799 86.1933 132.005 86.616 131.26 87.0637C130.813 87.3373 130.763 88.0088 131.061 88.3818C131.384 88.8295 131.93 88.8295 132.377 88.5808C135.283 86.9891 135.978 87.5362 136.574 86.5166Z" fill="#F48C7F"/>
<path d="M214.456 90.5211L210.581 99.3996L200.697 99.2255L200.747 96.6391L208.893 96.7883L212.916 87.5865L223.943 89.601L225.88 83.1846L228.289 84.1296L225.755 92.5605L214.456 90.5211Z" fill="#F7CC7F"/>
<path d="M268.397 25.7852C267.726 31.1571 273.289 35.4098 278.256 35.0616C283.744 34.6886 288.388 30.1872 289.208 24.7905C290.077 18.9461 286.576 14.2706 281.137 13.8478C275.847 13.425 272.469 18.1254 274.009 22.8755C275.102 26.2826 278.206 27.551 279.771 26.6059C280.988 25.8847 280.913 24.0195 279.448 23.6962C278.852 23.5718 278.256 23.8952 277.933 24.3428C276.642 23.8205 275.425 21.4828 276.244 18.9212C277.312 15.6633 281.41 15.4892 283.943 17.0063C287.172 18.9461 287.693 23.0745 286.501 26.3821C285.259 29.8639 281.857 32.5995 278.132 32.8482C273.935 33.1467 270.234 29.9136 269.911 25.7355C269.837 24.7905 268.521 24.8153 268.397 25.7852Z" fill="#86B1F2"/>
<path d="M453.042 80.3743C452.521 75.0024 446.138 72.0678 441.37 73.5102C436.105 75.077 432.554 80.5235 432.976 85.9451C433.423 91.8392 437.868 95.6194 443.257 94.8235C448.498 94.0526 450.758 88.7305 448.224 84.428C446.411 81.3442 443.108 80.797 441.792 82.0654C440.774 83.0602 441.246 84.8259 442.761 84.8259C443.357 84.8259 443.878 84.3534 444.102 83.856C445.468 84.0798 447.181 86.0943 446.933 88.7553C446.61 92.1625 442.661 93.2567 439.83 92.3366C436.254 91.1677 434.839 87.2383 435.261 83.7565C435.708 80.1007 438.415 76.6687 441.991 75.5993C446.014 74.3807 450.335 76.6936 451.602 80.7224C451.85 81.6675 453.142 81.3442 453.042 80.3743Z" fill="#86B1F2"/>
<path d="M485.625 320.64C485.625 320.64 486.222 325.688 486.222 326.534C486.222 327.379 486.222 327.379 486.222 327.379L485.799 328.25L485.625 328.598L488.63 332.826C488.63 332.826 500.725 333 500.998 333C501.271 333 499.384 330.065 499.384 330.065C499.384 330.065 495.386 327.056 494.665 324.942C493.945 322.828 495.286 318.401 495.286 318.401L485.625 320.64Z" fill="#F7A491"/>
<path d="M427.289 290.448C427.289 290.448 422.967 293.134 422.322 293.656C421.651 294.178 421.651 294.178 421.651 294.178L421.229 295.049L421.055 295.397L415.865 295.671C415.865 295.671 408.191 286.295 408.042 286.071C407.868 285.872 410.252 286.394 410.252 286.394C410.252 286.394 415.095 287.041 417.181 286.295C419.292 285.549 423.539 281.346 423.539 281.346L427.289 290.448Z" fill="#F7A491"/>
<path d="M466.453 243.121L420.037 282.714L427.189 292.86C427.189 292.86 474.896 263.191 477.38 262.868C479.888 262.519 481.9 263.688 482.372 265.504C482.844 267.319 484.036 322.057 484.036 322.057H496.428L502.885 253.144L466.453 243.121Z" fill="#48A089"/>
<path d="M533.333 186.642C536.76 184.378 544.831 175.724 547.563 172.764C547.588 172.416 547.861 170.402 550.046 167.865C551.611 166.074 552.778 161.946 553.796 163.115C554.815 164.284 552.281 167.542 553.449 167.567C554.616 167.591 560.353 161.125 561.272 162.17C562.191 163.214 556.354 168.959 557.397 168.984C558.44 169.009 563.159 163.19 564.475 164.682C565.792 166.174 558.267 170.999 558.962 171.819C559.657 172.615 564.302 169.457 565.369 170.65C566.412 171.844 558.813 174.679 559.409 174.679C560.005 174.679 564.401 174.58 564.451 175.425C564.475 176.37 553.349 177.863 551.983 179.529C549.078 184.18 543.887 192.66 538.647 196.366C532.215 200.917 517.389 210.591 517.389 210.591L510.013 201.041C509.988 201.041 529.26 189.303 533.333 186.642Z" fill="#F7A491"/>
<path d="M553.448 169.605C553.722 170.177 553.846 170.774 553.895 171.396C553.871 171.496 554.144 173.485 552.455 175.002C553.126 173.784 553.846 172.416 553.448 169.605Z" fill="#F48C7F"/>
<path d="M465.286 176.197C462.554 173.113 457.04 162.643 455.178 159.086C455.252 158.738 455.501 156.749 454.06 153.715C453.042 151.576 452.968 147.298 451.676 148.144C450.385 148.989 451.974 152.819 450.857 152.521C449.739 152.247 445.89 144.488 444.722 145.284C443.555 146.055 447.678 153.143 446.684 152.869C445.691 152.62 442.636 145.756 440.972 146.851C439.333 147.945 445.318 154.585 444.424 155.182C443.53 155.779 439.88 151.501 438.563 152.372C437.247 153.267 443.853 157.967 443.257 157.818C442.661 157.669 438.464 156.401 438.216 157.221C437.918 158.141 448.299 162.494 449.193 164.458C450.782 169.706 453.588 179.256 457.686 184.205C462.703 190.273 474.499 203.504 474.499 203.504L484.11 196.217C484.061 196.217 468.514 179.853 465.286 176.197Z" fill="#F7A491"/>
<path d="M450.31 154.511C449.888 154.983 449.615 155.53 449.416 156.127C449.416 156.227 448.621 158.092 449.863 159.982C449.54 158.614 449.192 157.097 450.31 154.511Z" fill="#F48C7F"/>
<path d="M485.799 197.933C487.19 195.844 489.599 194.65 492.107 194.824C499.483 195.322 514.433 196.515 515.849 197.933C517.736 199.823 523.399 212.158 518.009 229.468C512.62 246.777 509.64 244.962 505.244 244.962C500.849 244.962 480.062 235.138 480.062 235.138L485.799 197.933Z" fill="#161616"/>
<path d="M473.059 183.235L464.392 194.551L475.145 210.567C475.145 210.567 474.127 222.48 472.587 226.185C471.047 229.891 462.057 245.161 462.057 245.161C462.057 245.161 483.862 258.541 505.17 256.576C505.17 256.576 511.18 225.638 512.869 222.654C514.558 219.669 530.824 204.947 530.824 204.947L522.927 192.164L509.293 199.724C509.293 199.724 484.383 195.695 483.191 194.501C481.999 193.357 473.059 183.235 473.059 183.235Z" fill="#A08EC9"/>
<path d="M501.172 160.081C501.172 160.081 492.753 155.629 489.872 163.015C489.872 163.015 482.322 162.245 483.614 170.078C483.614 170.078 476.014 173.908 480.832 183.782C480.832 183.782 478.721 193.058 489.549 193.655C489.549 193.655 491.164 196.938 496.106 196.167C501.048 195.396 502.314 194.103 502.314 194.103C502.314 194.103 511.081 196.664 513.738 188.731C513.738 188.731 519.773 187.288 515.725 179.529C515.725 179.529 520.99 169.482 511.727 166.472C511.752 166.497 510.684 156.226 501.172 160.081Z" fill="#F47458"/>
<path d="M504.574 181.842C503.879 183.757 504.375 185.672 505.667 186.144C506.958 186.617 508.548 185.423 509.243 183.533C509.938 181.618 509.442 179.703 508.15 179.23C506.859 178.758 505.27 179.952 504.574 181.842Z" fill="#F7A491"/>
<path d="M481.9 177.166C481.801 179.206 482.844 180.897 484.21 180.946C485.576 181.021 486.768 179.429 486.867 177.39C486.966 175.376 485.923 173.66 484.557 173.61C483.167 173.535 481.975 175.127 481.9 177.166Z" fill="#F7A491"/>
<path d="M491.511 190.597C491.511 190.721 490.418 195.421 489.847 197.908C489.624 198.829 490.096 199.774 490.965 200.171C493.274 201.241 497.819 202.708 500.973 199.848C501.271 199.599 501.42 199.202 501.395 198.829L500.998 187.612L491.511 190.597Z" fill="#F7A491"/>
<path d="M490.916 193.233C493.374 194.476 496.454 194.501 499.906 192.462C500.353 192.213 500.75 191.94 501.147 191.641L500.998 187.612L491.512 190.597C491.512 190.646 491.263 191.79 490.916 193.233Z" fill="#F48C7F"/>
<path d="M498.242 164.657C498.242 164.657 502.389 165.751 504.823 169.78C507.257 173.809 508.598 185.473 499.906 190.596C491.213 195.694 484.88 187.786 485.054 180.325C485.203 172.864 488.531 163.289 498.242 164.657Z" fill="#F7A491"/>
<path d="M484.061 194.949C480.062 197.983 475.865 213.502 474.276 217.555L473.009 224.991L489.301 196.192C489.301 196.217 484.93 194.302 484.061 194.949Z" fill="#4C4C4C"/>
<path d="M503.829 198.878C503.829 198.878 503.333 218.003 504.773 224.593C506.213 231.159 509.988 233.472 509.988 233.472L511.851 225.812C511.851 225.812 509.988 208.9 509.318 199.798C509.194 198.405 503.829 198.878 503.829 198.878Z" fill="#4C4C4C"/>
<path d="M483.415 335.935C481.577 335.711 484.756 329.295 485.774 328.25L499.384 330.09C499.384 330.09 505.94 333.124 507.48 334.691C507.853 335.064 507.902 335.711 506.288 335.935C501.172 336.706 487.513 336.457 483.415 335.935Z" fill="#13375B"/>
<path d="M416.56 301.788C418.149 302.758 421.055 296.491 421.229 295.048L410.252 286.394C410.252 286.394 401.783 283.957 400.07 285.673C398.505 287.239 412.934 299.624 416.56 301.788Z" fill="#13375B"/>
<path d="M252.974 48.665L245.077 58.8367L262.064 61.8211L252.974 48.665Z" fill="#96D9C9"/>
<path d="M356.957 0.144531L376.527 27.0286L389.491 12.8529L356.957 0.144531Z" fill="#466EB6"/>
<path d="M391.254 5.4169L389.491 12.8529L356.957 0.144531L391.254 5.4169Z" fill="#9BC1F9"/>
<path d="M389.491 15.6881L356.957 0.144531L387.206 27.0286L389.491 15.6881Z" fill="#9BC1F9"/>
<path d="M409.234 47.9189C408.986 47.8941 403.274 47.2972 396.022 42.7958C388.746 38.2695 386.039 30.3361 386.039 29.0677C386.039 28.5703 386.436 28.1973 386.908 28.1973C387.38 28.1973 387.777 28.5703 387.777 29.0677C387.852 29.9133 390.186 37.1006 396.941 41.3036C403.82 45.5812 409.333 46.178 409.383 46.178C409.855 46.2278 410.228 46.6506 410.178 47.148C410.153 47.5956 409.731 47.9438 409.234 47.9189ZM387.802 29.0428C387.802 29.0428 387.802 29.0677 387.802 29.0428C387.802 29.0677 387.802 29.0428 387.802 29.0428Z" fill="#F7CC7F"/>
<path d="M444.798 55.8521C434.665 53.8128 424.955 50.0575 415.964 44.7105C408.564 40.3086 402.579 33.5689 395.029 29.8385C394.582 29.6146 394.408 29.0924 394.631 28.6696C394.855 28.2468 395.376 28.0478 395.799 28.2717C403.622 32.1265 409.532 38.8661 416.834 43.2183C425.65 48.4658 435.162 52.1465 445.096 54.1361C448.746 54.8822 453.092 55.1309 457.96 54.9319C458.457 54.9071 458.854 55.2801 458.879 55.7775C458.904 56.25 458.531 56.6728 458.034 56.6977C453.738 56.8718 449.069 56.7225 444.798 55.8521Z" fill="#F7CC7F"/>
<path d="M207.75 198.131C208.197 198.106 211.5 203.453 213.561 211.635C215.623 219.842 220.043 234.963 220.043 234.963C220.043 234.963 227.196 249.412 229.133 251.352C231.07 253.292 232.933 251.277 234.894 251.899C235.49 252.098 237.353 253.69 237.353 253.69C237.353 253.69 240.706 260.952 240.209 261.449C239.712 261.946 234.547 263.339 230.946 262.17C227.345 261.001 210.606 241.354 210.606 241.354C210.606 241.354 196.947 198.852 207.75 198.131Z" fill="#F48C7F"/>
<path d="M273.115 204.647L271.5 202.956C271.5 202.956 268.52 208.303 265.118 215.863C261.691 223.424 257.618 232.75 256.202 234.143C254.811 235.535 243.065 251.701 239.513 253.292C235.962 254.859 237.055 254.188 234.199 253.839C232.063 253.591 232.286 255.133 233.677 255.854C234.05 256.053 234.472 256.177 235.341 256.774C237.03 257.993 238.495 259.684 239.563 260.703C239.985 261.101 239.116 261.798 238.619 261.3C238.123 260.803 236.434 258.192 235.714 258.192C234.993 258.192 235.465 259.982 235.788 260.554C236.086 261.126 235.416 260.952 234.82 259.535C234.223 258.117 233.776 256.699 232.907 256.898C232.212 257.072 232.634 259.012 232.833 259.783C232.634 259.062 232.063 257.271 231.541 257.271C230.871 257.271 230.573 257.346 230.573 258.664C230.573 259.982 231.045 261.425 232.609 262.594C234.149 263.762 238.495 262.991 240.283 262.27C241.5 261.773 242.717 259.808 243.934 259.137C249.397 256.177 255.01 252.671 261.939 243.394C270.432 232.054 273.76 221.907 273.76 221.907L273.115 204.647Z" fill="#F4C0B8"/>
<path d="M269.961 333.447C269.961 333.447 269.067 329.667 269.961 325.066C270.855 320.465 275.722 297.038 275.722 292.188C275.722 287.314 278.057 280.201 278.057 280.201L263.752 276.595L262.312 290.571C262.312 290.571 261.542 323.151 260.25 324.444C258.934 325.762 253.421 327.677 251.707 327.677C249.77 327.677 246.715 327.801 246.715 328.771C246.715 329.741 246.989 330.388 246.989 330.388L269.961 333.447Z" fill="#F4C0B8"/>
<path d="M286.997 278.137L288.761 290.199C288.761 290.199 292.982 325.539 291.989 326.508C291.021 327.478 286.6 330.338 284.588 330.562C282.552 330.786 279.721 332.154 279.721 333.248C279.721 335.437 302.494 333.671 302.494 333.671C302.494 333.671 303.214 332.054 302.494 329.667C301.774 327.279 301.774 323.897 301.774 323.35C301.774 322.803 301.824 323.251 301.824 322.405C301.824 321.559 301.824 321.286 301.824 321.286C301.824 321.286 304.555 304.449 301.65 293.805L300.607 273.163L286.997 278.137Z" fill="#F4C0B8"/>
<path d="M192.353 160.255C192.353 160.255 187.088 160.18 183.437 162.244C179.811 164.284 178.842 169.183 178.768 173.013C178.669 177.962 180.308 182.936 183.387 186.791C186.467 190.67 191.881 192.411 191.881 192.411L207.129 182.662C207.129 182.662 208.942 178.136 207.651 172.043C206.384 166 206.732 159.31 192.353 160.255Z" fill="#184655"/>
<path d="M218.056 317.755C218.056 317.755 223.098 325.017 223.445 325.987C223.793 326.981 226.276 333.547 226.276 333.547L245.623 324.121L230.821 319.62L227.841 313.129L218.056 317.755Z" fill="#F48C7F"/>
<path d="M192.675 266.423L208.47 299.4L218.851 320.216C218.851 320.216 228.065 316.66 230.374 314.372L222.899 288.159L214.406 257.793L196.525 256.177L192.675 266.423Z" fill="#355389"/>
<path d="M177.799 321.112C177.799 321.112 178.52 325.986 178.52 326.285C178.52 326.608 177.452 331.283 177.253 332.552C177.079 333.82 177.253 334.815 177.253 334.815L195.581 330.413C195.581 330.413 192.849 328.622 190.44 327.279C188.006 325.936 187.659 319.495 187.659 319.495L177.799 321.112Z" fill="#F48C7F"/>
<path d="M175.242 257.768C175.242 257.768 178.371 277.54 177.949 284.155C177.328 293.655 174.795 297.311 176.608 322.231H189.373C189.373 322.231 190.267 308.851 192.253 298.48C194.24 288.109 198.561 270.726 198.561 270.726L205.664 254.685L175.242 257.768Z" fill="#355389"/>
<path d="M182.617 183.409C183.238 185.349 184.803 186.567 186.094 186.144C187.41 185.722 187.957 183.831 187.336 181.892C186.715 179.952 185.15 178.733 183.859 179.156C182.568 179.579 181.996 181.469 182.617 183.409Z" fill="#F48C7F"/>
<path d="M204.323 179.28C204.497 181.294 205.738 182.836 207.104 182.737C208.47 182.612 209.439 180.896 209.265 178.857C209.091 176.842 207.849 175.301 206.484 175.4C205.118 175.524 204.149 177.265 204.323 179.28Z" fill="#F48C7F"/>
<path d="M391.825 185.473C394.706 182.339 400.79 169.307 402.852 165.627C402.802 165.254 402.653 163.09 404.267 159.932C405.41 157.693 405.708 153.142 406.949 154.137C408.191 155.132 406.403 159.111 407.545 158.862C408.688 158.613 412.934 150.581 414.077 151.476C415.194 152.371 410.699 159.683 411.718 159.484C412.736 159.26 416.138 152.122 417.728 153.391C419.317 154.659 412.984 161.399 413.828 162.07C414.673 162.742 418.572 158.39 419.838 159.409C421.105 160.429 414.276 165.104 414.872 164.98C415.468 164.856 419.739 163.737 419.938 164.632C420.186 165.627 409.582 169.68 408.588 171.72C406.701 177.241 403.423 187.263 399.052 192.337C393.712 198.554 378.389 215.739 378.389 215.739L372.032 203.652C372.007 203.628 388.398 189.178 391.825 185.473Z" fill="#966259"/>
<path d="M407.942 161.001C408.34 161.523 408.588 162.145 408.762 162.767C408.762 162.866 409.432 164.906 408.091 166.87C408.489 165.453 408.911 163.836 407.942 161.001Z" fill="#6B4744"/>
<path d="M176.434 201.712C176.434 201.712 177.924 240.061 176.434 247.224C174.943 254.386 174.273 259.037 174.273 259.037C174.273 259.037 194.786 263.041 214.505 257.768C214.505 257.768 211.525 244.389 210.184 230.462C208.843 216.535 207.75 198.106 207.75 198.106C207.75 198.106 200.275 197.559 194.513 198.081C181.45 199.3 176.434 201.712 176.434 201.712Z" fill="#FAE0B2"/>
<path d="M188.627 188.382L188.056 198.877C188.056 198.877 189.05 204.672 194.786 204.995C200.523 205.343 198.834 192.958 198.834 192.958L198.487 188.357H188.627V188.382Z" fill="#F48C7F"/>
<path d="M198.636 196.266C198.785 196.266 198.909 196.266 199.058 196.266C199.033 194.401 198.834 192.958 198.834 192.958L198.487 188.357H188.627L188.553 189.924C189.794 192.063 193.42 196.266 198.636 196.266Z" fill="#F27A6A"/>
<path d="M177.6 328.672C177.6 328.672 178.271 328.001 180.63 328.2C182.99 328.399 194.836 329.717 195.332 329.717C195.829 329.717 202.609 334.865 202.907 335.81C203.205 336.755 188.279 336.133 188.279 336.133H176.905C176.93 336.133 175.862 332.726 177.6 328.672Z" fill="#282828"/>
<path d="M224.538 328.424C224.538 328.424 223.843 328.897 223.843 329.518C223.843 329.941 224.538 332.776 225.358 334.815C225.83 336.009 227.245 336.507 228.338 335.885L248.851 324.569C248.851 324.569 250.341 323.276 240.681 322.654L224.538 328.424Z" fill="#282828"/>
<path d="M176.433 201.713C176.433 201.713 173.528 202.981 171.814 206.96C170.101 210.915 164.612 228.846 168.312 239.565C168.312 239.565 169.976 247.722 178.52 253.293C187.063 258.888 201.963 260.231 202.808 259.386C203.652 258.54 203.677 257.073 203.677 256.128C203.677 255.183 205.639 254.71 205.639 253.442C205.639 252.149 202.336 251.925 198.536 251.925C198.536 251.925 197.866 251.85 198.685 251.228C199.53 250.607 200.573 249.811 200.399 248.617C200.225 247.423 199.455 247.473 198.71 248.219C197.99 248.94 195.556 250.93 193.619 250.358C191.682 249.786 180.258 240.41 178.37 237.426C178.37 237.426 179.14 202.36 176.433 201.713Z" fill="#F48C7F"/>
<path d="M271.5 202.956C271.5 202.956 277.659 199.524 284.191 198.778C290.722 198.007 300.11 200.47 300.11 200.47L305.524 278.66C305.524 278.66 281.236 290.224 263.007 278.66C263.007 278.66 267.899 245.832 267.899 241.206C267.899 236.58 267.899 236.58 267.899 236.58L271.5 202.956Z" fill="#A8E0D1"/>
<path d="M246.716 329.468C246.07 329.394 245.449 329.767 245.226 330.389C244.977 331.085 245.077 331.732 245.623 332.254C246.591 333.224 263.479 335.984 269.365 335.86C269.986 335.835 270.88 333.995 269.961 333.448C268.52 332.602 251.161 329.966 246.716 329.468Z" fill="#13375B"/>
<path d="M251.707 327.677L253.098 330.513L256.202 331.358C256.202 331.358 254.762 326.26 253.495 326.484C252.253 326.732 251.707 327.677 251.707 327.677Z" fill="#13375B"/>
<path d="M279.721 333.397C279.125 333.397 278.603 333.771 278.405 334.343C278.256 334.79 278.206 335.312 278.554 335.661C279.274 336.382 303.438 335.884 303.438 335.884C303.438 335.884 304.034 334.094 302.966 333.721C302.296 333.472 283.918 333.422 279.721 333.397Z" fill="#13375B"/>
<path d="M287.022 329.518C286.799 329.12 285.135 329.542 284.613 330.537L286.749 333.621H289.257L287.022 329.518Z" fill="#13375B"/>
<path d="M340.814 313.899C340.814 313.899 339.846 322.38 338.256 326.061C336.667 329.766 331.452 332.079 326.857 332.999C322.263 333.894 323.803 334.641 324.473 335.312C325.144 335.984 345.036 336.431 348.538 335.809C348.538 335.809 347.197 328.871 347.197 327.801C347.197 326.732 352.685 309.696 352.685 309.696L340.814 313.899Z" fill="#966259"/>
<path d="M348.562 335.785C348.562 335.785 348.289 334.368 347.991 332.726C344.167 333.249 335.375 332.353 330.979 331.831C329.638 332.328 327.999 332.503 326.658 332.751C322.064 333.647 322.412 334.865 323.554 335.711C324.324 336.258 345.036 336.432 348.562 335.785Z" fill="#FFBFA6"/>
<path d="M379.954 311.91C379.954 311.91 379.408 322.305 380.525 326.061C381.668 329.916 383.307 330.562 387.827 331.831C392.247 333.074 390.558 335.039 389.888 335.71C389.217 336.382 373.745 336.431 370.219 335.785C370.219 335.785 371.56 328.846 371.56 327.777C371.56 326.707 369.921 309.199 369.921 309.199L379.954 311.91Z" fill="#966259"/>
<path d="M370.244 335.785C370.244 335.785 370.517 334.368 370.815 332.726C374.639 333.249 383.431 332.353 387.827 331.831C389.341 332.204 390.583 332.503 391.924 333C396.32 334.616 395.923 335.039 395.252 335.711C394.582 336.382 373.745 336.432 370.244 335.785Z" fill="#FFBFA6"/>
<path d="M300.111 200.469C300.111 200.469 294.846 206.686 297.553 217.082C300.26 227.477 306.766 244.065 314.837 253.292C316.129 254.784 319.159 257.943 320.5 258.838C321.841 259.733 327.553 260.38 327.553 260.38C327.553 260.38 330.061 252.62 329.341 251.899C328.621 251.178 322.561 251.103 320.922 249.462C319.283 247.821 303.339 200.469 300.111 200.469Z" fill="#F4C0B8"/>
<path d="M351.021 200.32C351.021 200.32 349.507 201.265 348.439 204.051C347.371 206.836 341.758 229.816 340.939 233.148C340.318 235.735 334.631 243.27 331.824 246.926C331.005 247.995 330.359 248.891 329.962 248.891C327.478 248.891 323.38 250.259 323.38 251.303C323.38 252.323 324.349 252.447 325.963 252.074C327.577 251.726 326.361 253.467 325.765 254.064C325.168 254.661 322.685 257.993 323.579 258.864C324.473 259.759 326.584 260.356 327.577 260.356C328.124 260.356 329.217 260.306 331.203 258.665C332.892 257.297 335.351 254.486 337.164 252.87C343.67 247.05 349.035 234.839 350.003 232.054C350.972 229.293 351.021 200.32 351.021 200.32Z" fill="#966259"/>
<path d="M330.16 254.734C330.16 254.734 330.831 254.809 330.831 256.127C330.831 257.445 329.688 259.484 328.918 260.255C328.149 261.026 321.046 259.136 321.046 259.136C321.046 259.136 323.629 259.211 324.523 258.117C324.92 257.619 325.665 255.331 326.41 255.331C327.155 255.331 326.336 258.44 326.336 258.44C326.336 258.44 327.751 254.361 328.496 254.361C329.241 254.361 329.316 255.107 328.968 256.351C328.62 257.569 329.713 254.361 330.16 254.734Z" fill="#F4C0B8"/>
<path d="M335.872 314.745C335.872 314.745 346.402 317.581 358.347 317.581C370.293 317.581 393.762 311.488 393.762 311.488C393.762 311.488 387.28 295.82 385.07 283.783C382.834 271.746 381.22 251.079 381.22 251.079H345.582L343.347 265.404L335.872 314.745Z" fill="#466EB6"/>
<path d="M351.021 200.32C351.021 200.32 348.687 203.03 348.687 211.411C348.687 219.793 348.29 232.352 347.619 236.679C346.949 241.006 344.912 251.75 344.912 251.75C344.912 251.75 350.848 256.674 366.245 255.331C381.618 253.988 382.437 251.899 382.437 251.899C382.437 251.899 380.277 217.082 380.277 213.426C380.277 209.77 376.974 199.225 376.974 199.225C376.974 199.225 368.083 198.305 364.035 198.628C359.987 198.952 351.021 200.32 351.021 200.32Z" fill="#FFBFA6"/>
<path d="M344.018 167.442C344.018 167.442 337.536 169.282 338.082 175.947C338.579 182.09 341.584 181.767 341.584 181.767C341.584 181.767 339.373 190.471 346.029 192.983C352.312 195.371 354.672 192.983 354.672 192.983C354.672 192.983 357.403 200.195 366.716 197.41C376.029 194.624 375.185 188.954 375.185 188.954C375.185 188.954 379.159 190.521 383.728 183.209C388.323 175.923 385.69 170.65 379.631 167.417C379.631 167.417 381.642 158.116 372.379 156.649C363.091 155.156 360.806 160.255 360.806 160.255C360.806 160.255 359.142 154.56 349.258 158.489C342.801 161.075 344.018 167.442 344.018 167.442Z" fill="#161616"/>
<path d="M369.672 181.369C368.977 183.284 369.474 185.199 370.765 185.672C372.056 186.144 373.646 184.951 374.341 183.061C375.037 181.146 374.54 179.231 373.248 178.758C371.957 178.286 370.368 179.455 369.672 181.369Z" fill="#966259"/>
<path d="M348.562 183.26C348.885 185.274 350.226 186.717 351.568 186.518C352.933 186.319 353.753 184.503 353.455 182.514C353.132 180.499 351.791 179.057 350.45 179.256C349.084 179.455 348.24 181.27 348.562 183.26Z" fill="#966259"/>
<path d="M359.664 192.038L360.012 199.922C360.012 199.922 360.186 202.981 363.389 203.379C366.593 203.777 369.499 201.315 369.499 198.828C369.499 198.504 367.934 187.711 367.934 187.711L359.664 192.038Z" fill="#966259"/>
<path d="M367.934 187.711L359.664 192.038L359.788 194.849C361.278 194.849 363.513 194.749 365.277 193.68C366.767 192.784 367.611 191.64 368.282 190.098C368.083 188.706 367.934 187.711 367.934 187.711Z" fill="#6B4744"/>
<path d="M233.702 253.64C233.702 253.64 235.714 254.958 236.906 254.66C238.098 254.361 237.502 253.765 236.955 253.193C236.384 252.621 234.894 251.899 234.894 251.899L233.702 253.64Z" fill="#F48C7F"/>
<path d="M193.843 165.776C190.564 166.249 188.18 168.587 186.442 171.397C182.99 177.017 185.796 185.249 186.74 187.164C187.684 189.054 191.459 193.929 197.071 193.929C202.684 193.929 206.583 188.806 207.055 183.782C207.676 177.092 205.887 168.736 199.53 166.423C197.791 165.776 195.755 165.478 193.843 165.776Z" fill="#F48C7F"/>
<path d="M283.968 165.95C283.968 165.95 281.211 165.826 278.107 167.293C275.002 168.785 271.774 175.475 271.774 181.419C271.774 185.05 270.184 186.542 268.918 187.139C268.247 187.462 268.073 188.333 268.57 188.905C269.787 190.297 271.078 191.839 272.668 192.759C278.752 196.316 284.887 196.415 291.741 195.147C297.254 194.127 302.445 191.665 306.344 187.586C307.089 186.816 306.89 185.547 305.946 185.05C304.655 184.353 303.14 182.861 302.544 179.628C301.451 173.635 299.241 163.04 283.968 165.95Z" fill="#616161"/>
<path d="M292.238 182.339C291.791 184.328 292.536 186.169 293.852 186.467C295.193 186.766 296.633 185.398 297.08 183.408C297.527 181.419 296.782 179.578 295.466 179.28C294.1 179.006 292.66 180.374 292.238 182.339Z" fill="#F4C0B8"/>
<path d="M274.928 183.384C276.299 183.384 277.411 181.736 277.411 179.703C277.411 177.67 276.299 176.022 274.928 176.022C273.556 176.022 272.444 177.67 272.444 179.703C272.444 181.736 273.556 183.384 274.928 183.384Z" fill="#F4C0B8"/>
<path d="M280.863 192.76L280.193 202.036C280.193 202.036 280.516 204.15 283.024 204.598C285.532 205.045 290.897 201.315 290.897 199.325L289.63 188.606L280.863 192.76Z" fill="#F4C0B8"/>
<path d="M280.516 197.286C284.489 197.485 287.693 195.694 290.052 192.411L289.605 188.606L280.838 192.76L280.516 197.286Z" fill="#F7A491"/>
<path d="M274.68 184.453C275.276 187.909 276.294 193.953 281.708 194.599C287.097 195.221 291.145 192.311 293.728 187.039C296.286 181.767 295.69 174.803 294.274 171.371C293.157 168.635 288.289 168.76 285.905 168.81C277.858 168.909 273.314 176.818 274.68 184.453Z" fill="#F4C0B8"/>
<path d="M282.552 167.666C282.552 167.666 282.477 172.093 286.153 175.774C289.828 179.454 297.229 181.394 297.229 181.394L298.098 183.483C298.098 183.483 299.266 176.868 296.484 172.441C293.727 168.039 282.552 167.666 282.552 167.666Z" fill="#616161"/>
<path d="M363.911 166.497C363.911 166.497 367.835 167.616 370.169 171.57C372.504 175.525 373.919 186.915 365.798 191.765C357.677 196.614 352.239 188.83 351.667 181.568C351.022 172.988 354.747 165.03 363.911 166.497Z" fill="#966259"/>
<path d="M623.532 310.443C623.532 310.443 627.382 326.211 630.262 328.673C633.143 331.16 642.506 335.885 640.072 336.382C637.614 336.88 619.459 337.327 619.956 334.293C620.453 331.259 620.974 329.319 620.974 329.319L616.181 318.053L623.532 310.443Z" fill="#F79C8D"/>
<path d="M641.29 337.054C636.869 337.502 623.93 337.949 620.155 337.477C620.155 337.477 619.46 337.327 619.957 334.293C620.081 333.547 620.205 332.876 620.329 332.279C623.756 333.174 631.182 331.259 634.137 330.861C637.341 332.403 640.942 334.691 642.109 334.89C643.773 335.164 643.773 336.805 641.29 337.054Z" fill="#13375B"/>
<path d="M581.165 323.649C581.165 323.649 580.768 327.628 580.768 329.393C580.768 331.159 582.407 336.108 581.637 336.854C580.892 337.6 559.236 337.526 559.236 336.805C559.236 336.083 563.06 333.92 568.251 332.452C573.441 330.96 575.205 325.215 573.864 321.883L581.165 323.649Z" fill="#F79C8D"/>
<path d="M558.913 336.88C558.913 336.208 562.464 334.169 567.059 332.776C571.951 334.442 578.756 333.075 581.314 332.577C582.084 334.616 582.332 336.556 581.935 336.954C581.165 337.7 558.913 337.576 558.913 336.88Z" fill="#13375B"/>
<path d="M604.658 257.023L608.533 260.48C608.533 260.48 612.903 272.318 613.152 273.114C613.499 274.208 627.655 319.869 627.655 319.869L617.796 323.425C617.796 323.425 608.011 304.35 606.397 297.735C604.783 291.12 588.59 263.415 588.59 263.415L604.658 257.023Z" fill="#898989"/>
<path d="M587.523 264.061L582.804 324.569H571.877C571.877 324.569 567.953 279.281 569.319 263.39L587.523 264.061Z" fill="#898989"/>
<path d="M568.35 203.106C568.35 203.106 575.304 201.29 583.201 200.842C587.299 200.619 592.787 201.489 592.787 201.489C592.787 201.489 597.779 212.705 599.269 221.907C600.759 231.109 608.855 260.554 608.855 260.554C608.855 260.554 592.39 273.263 568.375 264.882V203.106H568.35Z" fill="#66331E"/>
<path d="M587.076 193.059C587.076 193.059 586.852 200.246 587.523 200.917C588.193 201.589 589.137 202.708 588.143 204.424C587.15 206.14 582.854 205.046 580.867 204.076C578.955 203.131 577.713 201.39 577.713 201.39L578.706 190.024L587.076 193.059Z" fill="#F79C8D"/>
<path d="M584.219 196.042C582.828 195.57 580.419 194.625 578.557 191.591L578.706 189.999L587.075 193.058C587.075 193.058 587.025 194.799 587.05 196.664C585.858 196.614 584.865 196.266 584.219 196.042Z" fill="#B75742"/>
<path d="M577.216 181.892C577.216 181.892 577.017 177.664 574.434 178.485C571.851 179.305 573.813 185.672 575.974 185.473C578.11 185.249 577.216 181.892 577.216 181.892Z" fill="#F79C8D"/>
<path d="M585.362 168.114C585.362 168.114 589.41 168.014 591.471 171.173C593.533 174.331 595.793 183.334 592.365 189.552C588.938 195.769 584.592 194.227 582.779 193.605C580.991 192.984 577.415 191.566 575.627 185.771C573.839 179.952 575.155 166.895 585.362 168.114Z" fill="#F79C8D"/>
<path d="M569.12 202.932C570.958 207.11 575.503 216.088 575.304 226.011C575.08 236.381 567.282 243.121 567.282 243.121V248.244C567.282 248.244 575.875 246.876 579.178 233.472C582.456 220.067 574.559 201.837 574.559 201.837C574.559 201.837 573.441 201.041 571.181 201.663C569.691 202.086 569.12 202.932 569.12 202.932Z" fill="#355389"/>
<path d="M588.019 200.818C588.019 200.818 594.476 235.66 602.87 237.924L601.405 231.98C601.405 231.98 592.763 203.777 592.763 201.489C592.763 199.201 588.019 200.818 588.019 200.818Z" fill="#355389"/>
<path d="M605.527 260.43H580.444V231.805L605.527 232.924V260.43Z" fill="#F47458"/>
<path d="M605.527 230.686H581.562C580.941 230.686 580.444 231.183 580.444 231.805C580.444 232.426 580.941 232.924 581.562 232.924H605.527H605.503C603.839 232.302 603.863 231.307 605.527 230.686Z" fill="#B75742"/>
<path d="M604.832 231.034H582.382C581.959 231.034 581.587 231.382 581.587 231.83C581.587 232.253 581.935 232.626 582.382 232.626H604.832C604.062 232.104 604.062 231.507 604.832 231.034Z" fill="#FAE0B2"/>
<path d="M594.526 231.184H592.936C592.589 231.184 592.315 231.457 592.315 231.806V231.856H594.501V231.184H594.526Z" fill="#13375B"/>
<path d="M593.011 231.184C593.383 231.184 593.954 231.507 594.277 231.905L598.027 236.555H600.238L596.686 232.129C596.264 231.606 595.519 231.184 595.022 231.184H593.011Z" fill="#355389"/>
<path d="M568.35 203.105C568.35 203.105 570.238 204.996 572.274 212.208C574.311 219.42 575.329 236.257 577.092 238.022C578.856 239.788 590.329 248.915 592.391 248.617C594.452 248.294 599.096 242.897 600.536 242.897C601.977 242.897 601.803 244.215 601.083 244.936C600.362 245.657 599.493 246.478 599.915 246.926C600.338 247.349 600.338 247.349 600.338 247.349C600.338 247.349 606.745 245.657 607.838 246.279C608.906 246.901 606.795 248.393 606.795 249.487C606.795 250.582 607.068 250.557 606.919 251.751C606.795 252.944 606.497 253.889 605.925 254.461C605.354 255.033 598.276 257.073 591.347 256.128C584.419 255.183 575.975 251.85 569.716 244.091C563.458 236.331 564.725 211.984 564.849 209.572C565.196 203.379 568.35 203.105 568.35 203.105Z" fill="#F79C8D"/>
<path d="M563.905 124.095C566.289 130.412 573.317 133.57 579.625 131.183C585.908 128.795 589.087 121.757 586.703 115.44C584.319 109.123 577.291 105.965 570.983 108.352C564.699 110.74 561.521 117.803 563.905 124.095Z" fill="#F7CC7F"/>
<path d="M582.084 119.27C583.35 122.652 581.661 126.407 578.309 127.675C574.931 128.944 571.181 127.253 569.915 123.895L582.084 119.27Z" fill="#EFEFEF"/>
</svg>
