<svg width="20" height="20" viewBox="0 0 20 20" fill="none" xmlns="http://www.w3.org/2000/svg">
<g clip-path="url(#clip0)">
<path d="M19.4671 3.24667L16.7399 0.51711C16.0527 -0.170628 14.8573 -0.171949 14.1675 0.518431L1.94992 12.8566C1.89576 12.9112 1.85668 12.9783 1.83538 13.0521L0.0172325 19.4211C-0.0280655 19.5797 0.0163377 19.7507 0.133098 19.8676C0.219646 19.9542 0.335512 20.0009 0.454489 20.0009C0.496207 20.0009 0.538394 19.9951 0.579218 19.9835L6.94281 18.1638C7.01648 18.1425 7.08352 18.1034 7.1381 18.0492L19.4671 5.81988C19.8107 5.47603 19.9998 5.0193 19.9998 4.53329C19.9998 4.04729 19.8107 3.59052 19.4671 3.24667ZM12.1868 3.82489L13.8599 5.49806L5.12436 14.2337L4.49744 12.9794C4.42018 12.8253 4.26306 12.7281 4.09082 12.7281H3.3629L12.1868 3.82489ZM1.11632 18.8845L1.70839 16.8119L3.18886 18.2923L1.11632 18.8845ZM6.36352 17.3854L4.18874 18.0067L1.99403 15.812L2.61529 13.6372H3.80978L4.59323 15.2042C4.63716 15.2921 4.70863 15.3635 4.79654 15.4075L6.36348 16.1909V17.3854H6.36352ZM7.27263 16.6379V15.91C7.27263 15.7377 7.17543 15.5806 7.02138 15.5033L5.7671 14.8764L14.5027 6.14084L16.1759 7.81401L7.27263 16.6379ZM18.8257 5.18779L16.8215 7.17413L12.8266 3.17925L14.8116 1.17638C15.1552 0.83279 15.7536 0.83279 16.0971 1.17638L18.8244 3.90364C18.9962 4.07541 19.0907 4.30357 19.0907 4.54638C19.0907 4.78919 18.9962 5.01734 18.8257 5.18779Z" fill="#66331E"/>
</g>
<defs>
<clipPath id="clip0">
<rect width="20" height="20" fill="white"/>
</clipPath>
</defs>
</svg>
