<svg width="388" height="256" viewBox="0 0 388 256" fill="none" xmlns="http://www.w3.org/2000/svg">
<g clip-path="url(#clip0)">
<path d="M313.112 30.1695C313.112 30.1695 271.584 -3.74788 217.573 11.2913C163.561 26.3305 140.961 72.8555 109.975 104.841C93.753 121.596 69.7869 127.774 50.5174 140.649C-11.0634 181.894 -1.97827 274.586 45.5626 309.561C86.6998 339.831 138.105 342.995 204.99 320.669C271.875 298.344 319.749 284.928 361.236 220.983C402.723 157.037 364.267 76.1948 313.112 30.1695Z" fill="#E59C7F"/>
<path opacity="0.7" d="M313.112 30.1695C313.112 30.1695 271.584 -3.74788 217.573 11.2913C163.561 26.3305 140.961 72.8555 109.975 104.841C93.753 121.596 69.7869 127.774 50.5174 140.649C-11.0634 181.894 -1.97827 274.586 45.5626 309.561C86.6998 339.831 138.105 342.995 204.99 320.669C271.875 298.344 319.749 284.928 361.236 220.983C402.723 157.037 364.267 76.1948 313.112 30.1695Z" fill="white"/>
<path d="M66.3809 125.984C66.3809 125.984 66.3809 122.287 61.2013 117.115C56.0217 111.944 52.7074 108.979 52.7074 108.979C52.7074 108.979 50.1176 117.482 54.9225 122.661C58.4566 126.306 62.2895 129.649 66.3809 132.654V125.984Z" fill="#E59C7F"/>
<path d="M58.8282 149.067C58.8282 149.067 58.8282 145.37 53.6569 140.199C48.4856 135.028 45.1547 132.063 45.1547 132.063C45.1547 132.063 42.5649 140.565 47.3697 145.737C50.9027 149.382 54.7357 152.725 58.8282 155.729V149.067Z" fill="#E59C7F"/>
<path d="M66.0145 132.279C66.0145 132.279 66.4058 128.607 72.0934 124.002C77.781 119.397 81.3701 116.816 81.3701 116.816C81.3701 116.816 83.0356 125.543 77.7227 130.181C73.8112 133.43 69.6328 136.344 65.2317 138.891L66.0145 132.279Z" fill="#E59C7F"/>
<path d="M56.9377 159.535C56.9377 159.535 57.7121 155.921 63.8577 151.949C70.0033 147.976 73.8505 145.778 73.8505 145.778C73.8505 145.778 74.6 154.63 68.8541 158.686C64.6277 161.507 60.1706 163.967 55.5303 166.039L56.9377 159.535Z" fill="#E59C7F"/>
<path d="M58.6449 189.255C58.6449 189.255 58.6449 185.558 63.8245 180.387C69.0041 175.215 72.3184 172.259 72.3184 172.259C72.3184 172.259 74.9082 180.753 70.1033 185.933C66.5692 189.577 62.7363 192.92 58.6449 195.925V189.255Z" fill="#E59C7F"/>
<path d="M58.5618 196.508C58.5618 196.508 59.0864 192.853 54.6979 186.999C50.3093 181.144 47.4447 177.739 47.4447 177.739C47.4447 177.739 43.6724 185.783 47.6945 191.587C50.6753 195.692 53.9927 199.541 57.6124 203.095L58.5618 196.508Z" fill="#E59C7F"/>
<path d="M53.457 218.01C53.457 218.01 53.457 214.312 58.6283 209.141C63.7995 203.97 67.1305 201.005 67.1305 201.005C67.1305 201.005 69.7203 209.507 64.9154 214.679C61.3824 218.325 57.5495 221.667 53.457 224.672V218.01Z" fill="#E59C7F"/>
<path d="M56.9126 237.496C56.9126 237.496 55.98 233.923 59.669 227.611C63.358 221.299 65.8396 217.618 65.8396 217.618C65.8396 217.618 70.4946 225.179 67.1553 231.408C64.6574 235.823 61.7939 240.021 58.5948 243.958L56.9126 237.496Z" fill="#E59C7F"/>
<path d="M66.8055 125.035C66.546 128.883 66.0734 132.714 65.3899 136.51C63.3413 147.077 58.2283 153.897 56.2298 163.44C54.2312 172.984 60.052 185.283 58.4782 197.541C56.9043 209.799 52.1327 216.619 53.4818 224.796C54.8308 232.974 62.2172 255.599 62.2172 255.599" stroke="#66331E" stroke-linecap="round" stroke-linejoin="round"/>
<path d="M65.9646 134.736L71.5356 130.456" stroke="#66331E" stroke-linecap="round" stroke-linejoin="round"/>
<path d="M66.2228 129.806L63.8828 125.659" stroke="#66331E" stroke-linecap="round" stroke-linejoin="round"/>
<path d="M56.4965 162.999C56.4965 162.999 61.1598 159.493 65.9647 155.996" stroke="#66331E" stroke-linecap="round" stroke-linejoin="round"/>
<path d="M58.8281 155.721C58.8281 155.721 54.9392 148.093 50.559 143.013" stroke="#66331E" stroke-linecap="round" stroke-linejoin="round"/>
<path d="M58.8279 194.51C61.4973 189.609 64.8633 185.121 68.8208 181.186" stroke="#66331E" stroke-linecap="round" stroke-linejoin="round"/>
<path d="M57.9203 199.698C56.5042 196.365 54.8135 193.157 52.8656 190.105C50.1426 186.082 49.7262 185.566 49.7262 185.566" stroke="#66331E" stroke-linecap="round" stroke-linejoin="round"/>
<path d="M53.457 224.796C54.6275 221.864 56.0194 219.024 57.6207 216.303C59.2353 213.777 61.0569 211.39 63.0667 209.166" stroke="#66331E" stroke-linecap="round" stroke-linejoin="round"/>
<path d="M58.5951 243.933C58.3283 241.128 58.8111 238.303 59.9941 235.747C61.9427 231.991 64.1577 227.061 65.0571 225.113" stroke="#66331E" stroke-linecap="round" stroke-linejoin="round"/>
<path d="M24.1112 175.357C24.1112 175.357 23.7115 173.042 26.3929 169.236C29.0743 165.431 30.8397 163.216 30.8397 163.216C30.8397 163.216 33.3879 168.262 30.9397 172.026C29.1151 174.688 27.0735 177.195 24.8357 179.521L24.1112 175.357Z" fill="#E59C7F"/>
<path d="M31.3311 189.014C31.3311 189.014 30.9314 186.699 33.6128 182.893C36.2942 179.088 38.0679 176.873 38.0679 176.873C38.0679 176.873 40.5661 181.919 38.1595 185.683C36.3403 188.349 34.2984 190.856 32.0556 193.178L31.3311 189.014Z" fill="#E59C7F"/>
<path d="M25.0024 179.271C25.0024 179.271 24.3611 177.006 20.2891 174.741C16.217 172.476 13.6688 171.243 13.6688 171.243C13.6688 171.243 13.5689 176.897 17.4078 179.229C20.2056 180.842 23.1331 182.218 26.1599 183.343L25.0024 179.271Z" fill="#E59C7F"/>
<path d="M33.6462 195.376C33.6462 195.376 32.8135 193.194 28.4833 191.37C24.1531 189.547 21.5383 188.589 21.5383 188.589C21.5383 188.589 22.0296 194.218 26.0933 196.134C29.0524 197.446 32.1165 198.507 35.2534 199.306L33.6462 195.376Z" fill="#E59C7F"/>
<path d="M35.8028 214.196C35.8028 214.196 35.4031 211.881 31.5975 209.199C27.7919 206.518 25.3853 205.036 25.3853 205.036C25.3853 205.036 24.6858 210.648 28.2582 213.363C30.8713 215.255 33.6372 216.926 36.5273 218.359L35.8028 214.196Z" fill="#E59C7F"/>
<path d="M36.6442 218.734C36.6442 218.734 35.9197 216.502 38.0348 212.355C40.15 208.208 41.5823 205.76 41.5823 205.76C41.5823 205.76 44.8216 210.398 42.9313 214.47C41.5044 217.383 39.8329 220.168 37.9349 222.798L36.6442 218.734Z" fill="#E59C7F"/>
<path d="M43.1395 237.429C43.1395 237.429 43.4143 235.097 47.0534 232.199C50.6924 229.302 53.0574 227.678 53.0574 227.678C53.0574 227.678 54.0733 233.24 50.6591 236.163C48.1609 238.207 45.495 240.037 42.6898 241.634L43.1395 237.429Z" fill="#E59C7F"/>
<path d="M42.1816 231.666C42.1816 231.666 41.7819 229.351 38.0179 226.67C34.2539 223.989 31.8057 222.506 31.8057 222.506C31.8057 222.506 31.1062 228.119 34.6786 230.834C37.2904 232.728 40.0565 234.399 42.9477 235.83L42.1816 231.666Z" fill="#E59C7F"/>
<path d="M42.1316 244.266C42.1316 244.266 42.3314 241.917 39.3253 238.362C36.3191 234.806 34.3705 232.749 34.3705 232.749C34.3705 232.749 32.272 237.995 35.045 241.534C37.0893 244.034 39.3401 246.357 41.7735 248.479L42.1316 244.266Z" fill="#E59C7F"/>
<path d="M23.72 174.816C24.3001 177.199 25.0118 179.548 25.8518 181.852C28.2834 188.264 32.2305 191.978 34.5455 197.741C36.8605 203.503 34.5455 211.897 36.8355 219.392C39.1256 226.887 42.8812 230.659 42.9145 235.939C42.9478 241.218 41.0159 255.499 41.0159 255.499" stroke="#66331E" stroke-linecap="round" stroke-linejoin="round"/>
<path d="M25.3021 180.803L21.3383 178.729" stroke="#66331E" stroke-linecap="round" stroke-linejoin="round"/>
<path d="M24.6025 177.739L25.6185 174.882" stroke="#66331E" stroke-linecap="round" stroke-linejoin="round"/>
<path d="M34.3041 197.499C34.3041 197.499 30.9732 195.834 27.6422 194.168" stroke="#66331E" stroke-linecap="round" stroke-linejoin="round"/>
<path d="M32.0473 193.186C33.0203 190.113 34.3038 187.147 35.8779 184.334" stroke="#66331E" stroke-linecap="round" stroke-linejoin="round"/>
<path d="M36.261 217.518C34.0583 214.725 31.4607 212.268 28.5499 210.223" stroke="#66331E" stroke-linecap="round" stroke-linejoin="round"/>
<path d="M37.3935 220.666C37.9198 218.423 38.6329 216.228 39.5253 214.104C40.7911 211.29 40.9826 210.923 40.9826 210.923" stroke="#66331E" stroke-linecap="round" stroke-linejoin="round"/>
<path d="M42.7397 239.927C44.0256 238.331 45.4495 236.852 46.995 235.506C47.9824 234.779 48.9098 233.974 49.768 233.099" stroke="#66331E" stroke-linecap="round" stroke-linejoin="round"/>
<path d="M42.9146 235.922C41.8558 234.209 40.6671 232.581 39.3588 231.05C38.0799 229.644 36.6873 228.347 35.1951 227.17" stroke="#66331E" stroke-linecap="round" stroke-linejoin="round"/>
<path d="M41.7737 248.479C41.6391 246.687 41.0298 244.962 40.0083 243.483C38.3428 241.334 36.4608 238.486 35.678 237.362" stroke="#66331E" stroke-linecap="round" stroke-linejoin="round"/>
<path d="M364.492 74.5458H305.576V151.699H364.492V74.5458Z" stroke="#5E3525" stroke-linecap="round" stroke-linejoin="round"/>
<path d="M355.391 86.4623H314.686V139.766H355.391V86.4623Z" stroke="#5E3525" stroke-linecap="round" stroke-linejoin="round"/>
<path d="M275.889 46.491H229.831V106.806H275.889V46.491Z" stroke="#5E3525" stroke-linecap="round" stroke-linejoin="round"/>
<path d="M268.778 55.8092H236.951V97.4793H268.778V55.8092Z" stroke="#5E3525" stroke-linecap="round" stroke-linejoin="round"/>
<path d="M165.834 111.369C165.834 111.369 164.61 105.59 160.58 105.59C156.549 105.59 155.492 110.045 158.032 115.133C160.572 120.221 167.791 123.411 168.216 120.438C168.641 117.465 165.834 111.369 165.834 111.369Z" fill="white" stroke="#161616" stroke-linecap="round" stroke-linejoin="round"/>
<path d="M228.931 88.3192C228.931 88.3192 230.688 94.19 228.931 99.761C227.98 102.927 226.49 105.904 224.526 108.563V91.8417L228.931 88.3192Z" fill="#161616" stroke="#161616" stroke-linecap="round" stroke-linejoin="round"/>
<path d="M192.124 236.988L157.041 233.565L157.674 235.464C157.674 235.464 161.837 271.979 165.293 289.442C168.749 306.904 171.331 314.207 171.331 314.207C171.181 317.956 171.608 321.705 172.596 325.324C174.187 330.404 174.503 342.812 175.769 349.14C177.035 355.469 176.41 358.983 176.41 358.983C176.41 358.983 172.913 362.789 173.229 363.738C173.433 364.462 173.54 365.21 173.546 365.962C173.546 365.962 175.453 371.041 180.532 371.041C185.612 371.041 190.059 366.919 190.059 366.919L191.325 261.612L192.157 261.553L192.948 261.612L194.223 366.919C194.223 366.919 198.669 371.041 203.749 371.041C208.829 371.041 210.727 365.962 210.727 365.962C210.733 365.209 210.843 364.461 211.052 363.738C211.369 362.789 207.871 358.983 207.871 358.983C207.871 358.983 207.238 355.486 208.512 349.14C209.786 342.795 210.094 330.404 211.685 325.324C212.671 321.705 213.095 317.955 212.942 314.207C212.942 314.207 215.482 306.904 218.98 289.442C222.477 271.979 226.599 235.447 226.599 235.447L227.232 233.548L192.124 236.988Z" fill="#161616"/>
<path d="M192.124 236.988L157.041 233.565L157.674 235.464C157.674 235.464 161.837 271.979 165.293 289.442C168.749 306.904 171.331 314.207 171.331 314.207C171.181 317.956 171.608 321.705 172.596 325.324C174.187 330.404 174.503 342.812 175.769 349.14C177.035 355.469 176.41 358.983 176.41 358.983C176.41 358.983 172.913 362.789 173.229 363.738C173.433 364.462 173.54 365.21 173.546 365.962C173.546 365.962 175.453 371.041 180.532 371.041C185.612 371.041 190.059 366.919 190.059 366.919L191.325 261.612L192.157 261.553L192.948 261.612L194.223 366.919C194.223 366.919 198.669 371.041 203.749 371.041C208.829 371.041 210.727 365.962 210.727 365.962C210.733 365.209 210.843 364.461 211.052 363.738C211.369 362.789 207.871 358.983 207.871 358.983C207.871 358.983 207.238 355.486 208.512 349.14C209.786 342.795 210.094 330.404 211.685 325.324C212.671 321.705 213.095 317.955 212.942 314.207C212.942 314.207 215.482 306.904 218.98 289.442C222.477 271.979 226.599 235.447 226.599 235.447L227.232 233.548L192.124 236.988Z" stroke="#161616" stroke-linecap="round" stroke-linejoin="round"/>
<path d="M218.347 129.423C218.347 129.423 203.1 126.558 193.898 126.558C184.696 126.558 169.749 131.638 169.749 131.638L179.633 239.611C179.633 239.611 185.346 242.109 195.505 242.109C205.665 242.109 215.191 237.346 215.191 237.346L218.347 129.423Z" fill="white" stroke="#161616" stroke-linecap="round" stroke-linejoin="round"/>
<path d="M196.221 168.545C207.236 168.545 216.165 159.742 216.165 148.884C216.165 138.026 207.236 129.223 196.221 129.223C185.206 129.223 176.277 138.026 176.277 148.884C176.277 159.742 185.206 168.545 196.221 168.545Z" fill="white" stroke="#161616" stroke-linecap="round" stroke-linejoin="round"/>
<path d="M196.221 163.732C204.541 163.732 211.285 157.084 211.285 148.884C211.285 140.684 204.541 134.036 196.221 134.036C187.901 134.036 181.157 140.684 181.157 148.884C181.157 157.084 187.901 163.732 196.221 163.732Z" fill="white" stroke="#161616" stroke-linecap="round" stroke-linejoin="round"/>
<path opacity="0.3" d="M171.822 136.11C171.822 136.11 170.081 172.167 193.973 178.679C217.864 185.191 228.29 149.142 225.25 138.283C222.211 127.424 180.507 121.362 171.822 136.11Z" fill="black"/>
<path d="M196.221 154.522C206.459 154.522 214.758 147.874 214.758 139.674C214.758 131.474 206.459 124.826 196.221 124.826C185.984 124.826 177.684 131.474 177.684 139.674C177.684 147.874 185.984 154.522 196.221 154.522Z" fill="#161616" stroke="#161616" stroke-linecap="round" stroke-linejoin="round"/>
<path d="M247.917 174.341C247.917 174.341 313.895 196.425 322.156 183.334C326.611 176.264 308.457 164.548 296.991 160.726C285.524 156.903 253.688 141.856 253.688 141.856" fill="#E59C7F"/>
<path opacity="0.3" d="M303.344 178.471C294.043 178.471 257.877 170.019 249.067 167.929L247.934 174.341C247.934 174.341 313.912 196.425 322.173 183.335C322.423 182.936 322.608 182.5 322.722 182.044C316.496 179.821 309.953 178.615 303.344 178.471Z" fill="black"/>
<path d="M259.642 162.225L251.523 176.065L259.642 168.379" stroke="#161616" stroke-linecap="round" stroke-linejoin="round"/>
<path d="M247.917 174.341C247.917 174.341 313.895 196.425 322.156 183.334C326.611 176.264 308.457 164.548 296.991 160.726C285.524 156.903 253.688 141.856 253.688 141.856" stroke="#161616" stroke-linecap="round" stroke-linejoin="round"/>
<path d="M253.938 164.581L235.485 248.171L207.48 255.175L209.812 193.436L214.05 138.067L215.716 127.666C215.716 127.666 253.48 140.607 256.236 142.522C258.993 144.437 257.902 155.013 257.902 155.013" fill="#E59C7F"/>
<path opacity="0.3" d="M251.548 175.407L221.17 233.124C221.17 233.124 227.457 209.532 227.066 206.784C226.841 205.185 217.073 210.99 208.954 216.153L207.48 255.175L235.485 248.171L251.548 175.407Z" fill="black"/>
<path opacity="0.3" d="M221.561 130.522C221.561 130.522 231.396 137.592 230.213 153.323C229.031 169.053 225.492 166.696 225.492 166.696C225.492 166.696 227.857 170.227 225.492 170.627C223.127 171.026 218.83 163.549 217.997 165.514C217.165 167.479 212.493 169.836 212.493 169.836L214.025 138.083C214.025 138.083 215.274 129.689 221.561 130.522Z" fill="black"/>
<path d="M230.214 142.022C230.214 142.022 233.545 150.35 231.529 162.225" stroke="#161616" stroke-linecap="round" stroke-linejoin="round"/>
<path d="M233.953 154.763C233.953 154.763 235.485 158.052 230.214 171.235" stroke="#161616" stroke-linecap="round" stroke-linejoin="round"/>
<path d="M240.981 204.178C240.981 204.178 228.898 227.678 215.94 237.562" stroke="#161616" stroke-linecap="round" stroke-linejoin="round"/>
<path d="M226.483 216.477C226.483 216.477 224.942 219.117 217.939 224.621" stroke="#161616" stroke-linecap="round" stroke-linejoin="round"/>
<path d="M253.938 164.581L235.485 248.171L207.48 255.175L209.812 193.436L214.05 138.067L215.716 127.666C215.716 127.666 253.48 140.607 256.236 142.522C258.993 144.437 257.902 155.013 257.902 155.013" stroke="#161616" stroke-linecap="round" stroke-linejoin="round"/>
<path d="M219.355 127.033C220.769 129.873 221.567 132.981 221.695 136.152C221.695 140.823 221.903 152.282 222.96 157.586C224.018 162.891 227.415 169.036 226.358 168.828C225.3 168.62 224.026 165.855 221.27 162.674C218.514 159.493 217.664 154.397 216.174 155.463C214.683 156.529 211.935 165.647 211.935 165.647C211.935 165.647 212.36 146.552 212.993 139.341C213.625 132.129 215.116 122.578 219.355 127.033Z" fill="#E59C7F"/>
<path opacity="0.3" d="M219.355 127.033C220.769 129.873 221.567 132.981 221.695 136.152C221.695 140.823 221.903 152.282 222.96 157.586C224.018 162.891 227.415 169.036 226.358 168.828C225.3 168.62 224.026 165.855 221.27 162.674C218.514 159.493 217.664 154.397 216.174 155.463C214.683 156.529 211.935 165.647 211.935 165.647C211.935 165.647 212.36 146.552 212.993 139.341C213.625 132.129 215.116 122.578 219.355 127.033Z" fill="black"/>
<path d="M219.355 127.033C220.769 129.873 221.567 132.981 221.695 136.152C221.695 140.823 221.903 152.282 222.96 157.586C224.018 162.891 227.415 169.036 226.358 168.828C225.3 168.62 224.026 165.855 221.27 162.674C218.514 159.493 217.664 154.397 216.174 155.463C214.683 156.529 211.935 165.647 211.935 165.647C211.935 165.647 212.36 146.552 212.993 139.341C213.625 132.129 215.116 122.578 219.355 127.033Z" stroke="#161616" stroke-linecap="round" stroke-linejoin="round"/>
<path d="M133.874 145.512C133.874 145.512 107.46 189.455 103.346 198.549C99.2325 207.642 93.6032 216.036 95.1188 219.758C96.6344 223.481 100.948 226.254 109.409 225.821C117.869 225.388 144.916 178.413 144.916 178.413L133.874 145.512Z" fill="#E59C7F"/>
<path opacity="0.3" d="M122.857 212.655C130.677 202.104 139.204 188.048 142.951 181.727L138.596 170.21L113.014 217.393L122.857 212.655Z" fill="black"/>
<path d="M129.835 165.081L141.26 185.066L128.961 175.19" stroke="#161616" stroke-linecap="round" stroke-linejoin="round"/>
<path d="M109.192 201.305C109.192 201.305 117.519 205.469 121.05 213.388" stroke="#161616" stroke-linecap="round" stroke-linejoin="round"/>
<path d="M116.437 200.664C116.437 200.664 120.176 205.06 121.491 209.89" stroke="#161616" stroke-linecap="round" stroke-linejoin="round"/>
<path d="M133.874 145.512C133.874 145.512 107.46 189.455 103.346 198.549C99.2325 207.642 93.6032 216.036 95.1188 219.758C96.6344 223.481 100.948 226.254 109.409 225.821C117.869 225.388 144.916 178.413 144.916 178.413L133.874 145.512Z" stroke="#161616" stroke-linecap="round" stroke-linejoin="round"/>
<path d="M137.03 164.581L155.484 248.171L183.48 255.175L181.149 193.436L176.91 138.067L175.244 127.666C175.244 127.666 137.455 140.607 134.665 142.522C131.876 144.437 133 155.013 133 155.013" fill="#E59C7F"/>
<path opacity="0.3" d="M155.484 248.171L183.489 255.175L182.323 224.23L145.782 204.211L155.484 248.171Z" fill="black"/>
<path d="M150.487 206.16C150.487 206.16 157.982 216.044 166.309 221.748" stroke="#161616" stroke-linecap="round" stroke-linejoin="round"/>
<path opacity="0.3" d="M169.265 158.835C169.265 158.835 164.161 169.061 166.909 169.453C169.657 169.844 172.08 159.085 175.561 162.374L179.033 165.705L175.952 146.286C172.671 149.817 170.367 154.142 169.265 158.835Z" fill="black"/>
<path d="M167.617 131.696C167.617 131.696 162.121 147.518 163.661 160.909" stroke="#161616" stroke-linecap="round" stroke-linejoin="round"/>
<path d="M161.246 140.698C161.246 140.698 158.607 154.538 161.463 162.224" stroke="#161616" stroke-linecap="round" stroke-linejoin="round"/>
<path d="M137.03 164.581L155.484 248.171L183.48 255.175L181.149 193.436L176.91 138.067L175.244 127.666C175.244 127.666 137.455 140.607 134.665 142.522C131.876 144.437 133 155.013 133 155.013" stroke="#161616" stroke-linecap="round" stroke-linejoin="round"/>
<path d="M171.614 127.033C170.203 129.874 169.409 132.982 169.282 136.152C169.282 140.823 169.066 152.282 168.008 157.586C166.95 162.891 163.553 169.036 164.644 168.828C165.735 168.62 166.975 165.855 169.732 162.674C172.488 159.493 173.346 154.397 174.828 155.463C176.31 156.529 179.067 165.647 179.067 165.647C179.067 165.647 178.642 146.552 178.009 139.341C177.376 132.129 175.852 122.578 171.614 127.033Z" fill="#E59C7F"/>
<path opacity="0.3" d="M173.121 136.11C173.121 136.11 170.581 144.554 172.688 150.008C174.795 155.463 178.767 163.474 178.767 163.474L177.934 139.324" fill="black"/>
<path d="M171.614 127.033C170.203 129.874 169.409 132.982 169.282 136.152C169.282 140.823 169.066 152.282 168.008 157.586C166.95 162.891 163.553 169.036 164.644 168.828C165.735 168.62 166.975 165.855 169.732 162.674C172.488 159.493 173.346 154.397 174.828 155.463C176.31 156.529 179.067 165.647 179.067 165.647C179.067 165.647 178.642 146.552 178.009 139.341C177.376 132.129 175.852 122.578 171.614 127.033Z" stroke="#161616" stroke-linecap="round" stroke-linejoin="round"/>
<path d="M165.285 96.2385C165.285 96.2385 165.285 114.425 167.633 124.984C169.982 135.544 174.67 144.337 186.695 149.325C198.719 154.313 213.092 147.86 219.255 140.232C225.417 132.604 224.826 111.203 224.826 106.506C224.826 101.809 225.117 86.8535 225.117 86.8535C225.117 86.8535 222.769 79.8169 212.501 73.0634C202.234 66.3099 191.974 63.0706 179.067 71.0065C166.159 78.9425 165.285 96.2385 165.285 96.2385Z" fill="white" stroke="#161616" stroke-linecap="round" stroke-linejoin="round"/>
<path d="M206.697 115.3L213.317 115.092" stroke="#161616" stroke-linecap="round" stroke-linejoin="round"/>
<path d="M201.734 131.963C201.734 131.963 202.708 128.482 207.855 127.649" stroke="#161616" stroke-linecap="round" stroke-linejoin="round"/>
<path d="M196.563 115.916V120.471C197.131 120.913 197.593 121.477 197.914 122.121C198.235 122.766 198.408 123.474 198.42 124.194C198.628 126.883 196.196 128.307 193.898 126.559" fill="white"/>
<path d="M196.563 115.916V120.471C197.131 120.913 197.593 121.477 197.914 122.121C198.235 122.766 198.408 123.474 198.42 124.194C198.628 126.883 196.196 128.307 193.898 126.559" stroke="#161616" stroke-linecap="round" stroke-linejoin="round"/>
<path d="M182.414 113.326H181.715C181.163 113.326 180.633 113.107 180.243 112.716C179.853 112.326 179.633 111.797 179.633 111.244H184.496C184.496 111.797 184.277 112.326 183.887 112.716C183.496 113.107 182.967 113.326 182.414 113.326Z" fill="#161616"/>
<path d="M177.543 111.103H186.72" stroke="#161616" stroke-linecap="round" stroke-linejoin="round"/>
<path d="M177.543 112.802H186.72" stroke="#161616" stroke-linecap="round" stroke-linejoin="round"/>
<path d="M210.911 110.961C210.911 112.502 210.261 113.743 209.453 113.743C208.646 113.743 207.996 112.502 207.996 110.961C207.996 109.421 208.646 108.188 209.453 108.188C210.261 108.188 210.911 109.429 210.911 110.961Z" fill="#161616"/>
<path d="M200.043 102.85C200.043 102.85 205.556 99.6694 219.346 101.576" stroke="#161616" stroke-width="3" stroke-linecap="round" stroke-linejoin="round"/>
<path d="M189.859 101.152C188.144 98.392 185.777 96.097 182.965 94.469C180.154 92.841 176.984 91.9301 173.737 91.8167" stroke="#161616" stroke-width="3" stroke-linecap="round" stroke-linejoin="round"/>
<path d="M234.211 68.0671C230.397 60.1477 216.906 47.8316 203.116 47.2487C191.325 46.7407 187.294 51.1792 186.337 52.4699C185.82 52.0952 177.909 46.6408 164.511 53.3027C164.43 53.3464 164.365 53.4158 164.328 53.5001C164.29 53.5843 164.282 53.6785 164.304 53.7681C164.326 53.8576 164.377 53.9373 164.449 53.9947C164.521 54.0522 164.61 54.0841 164.702 54.0854C164.766 54.0877 164.829 54.0734 164.885 54.0438C174.753 49.1057 181.632 51.0709 184.438 52.3783C182.639 52.0702 179.392 51.9536 174.67 53.4026C167.042 55.7509 158.848 63.6702 156.783 77.452C154.718 91.2338 161.18 102.967 163.528 105.315C165.876 107.664 166.168 112.652 166.168 112.652L165.577 97.396C165.577 97.396 165.285 96.2219 168.808 93.8819C171.705 91.9416 184.388 79.0342 188.735 74.5707C189.518 78.7344 191.65 86.8952 196.954 92.4079C197.033 92.4877 197.141 92.5326 197.254 92.5329C197.308 92.5346 197.362 92.5251 197.412 92.5051C197.462 92.485 197.507 92.4548 197.545 92.4163C197.584 92.3783 197.615 92.3329 197.636 92.2829C197.657 92.2328 197.668 92.1791 197.668 92.1248C197.668 92.0705 197.657 92.0168 197.636 91.9667C197.615 91.9167 197.584 91.8713 197.545 91.8334C192.124 86.1874 190.109 77.6768 189.443 73.8379L190.209 73.0552C190.209 73.0552 193.723 82.7315 199.594 87.7196C205.465 92.7077 213.084 96.8131 225.109 92.9992C237.134 89.1853 241.53 83.6143 241.53 83.6143C241.53 83.6143 238.025 76.003 234.211 68.0671Z" fill="#161616"/>
<path d="M220.612 82.7233C240.498 85.4713 244.17 81.3909 244.17 81.3909" stroke="#7D7D7D" stroke-linecap="round" stroke-linejoin="round"/>
<path d="M191.291 60.9889C191.291 60.9889 197.587 75.1454 212.626 80.7664" stroke="#7D7D7D" stroke-linecap="round" stroke-linejoin="round"/>
<path d="M190.875 55.9924C190.875 55.9924 215.024 67.2177 224.601 67.6507C234.177 68.0838 235.426 65.9853 235.426 65.9853" stroke="#7D7D7D" stroke-linecap="round" stroke-linejoin="round"/>
<path d="M186.295 61.8215C186.295 61.8215 168.391 71.398 163.394 82.2236C158.398 93.0491 160.48 100.544 160.48 100.544" stroke="#7D7D7D" stroke-linecap="round" stroke-linejoin="round"/>
<path d="M163.37 64.6362C162.172 65.5403 161.057 66.5491 160.039 67.6507" stroke="#7D7D7D" stroke-linecap="round" stroke-linejoin="round"/>
<path d="M184.629 58.4906C178.325 58.2014 172.06 59.6168 166.492 62.5877" stroke="#7D7D7D" stroke-linecap="round" stroke-linejoin="round"/>
<path d="M192.241 107.48C188.203 105.67 183.829 104.734 179.404 104.734C174.98 104.734 170.605 105.67 166.568 107.48C166.568 107.48 164.128 107.722 164.128 109.679C164.128 111.636 165.835 111.386 165.835 111.386C165.835 111.386 166.168 120.638 169.999 123.369C173.421 125.817 181.007 126.55 184.913 125.084C188.818 123.619 191.275 120.921 192.008 118.481C192.741 116.041 192.241 107.48 192.241 107.48Z" stroke="#161616" stroke-width="3" stroke-linecap="round" stroke-linejoin="round"/>
<path d="M198.028 107.48C202.064 105.67 206.437 104.735 210.861 104.735C215.284 104.735 219.657 105.67 223.693 107.48C223.693 107.48 226.141 107.722 226.141 109.679C226.141 111.636 224.434 111.369 224.434 111.369C224.434 111.369 224.101 120.621 220.271 123.352C216.848 125.801 209.27 126.533 205.356 125.068C201.442 123.602 199.002 120.904 198.27 118.464C197.537 116.024 198.028 107.48 198.028 107.48Z" stroke="#161616" stroke-width="3" stroke-linecap="round" stroke-linejoin="round"/>
<path d="M192.241 107.481C194.111 106.728 196.2 106.728 198.07 107.481" stroke="#161616" stroke-width="3" stroke-linecap="round" stroke-linejoin="round"/>
<path d="M192.974 111.145H197.129" stroke="#161616" stroke-width="3" stroke-linecap="round" stroke-linejoin="round"/>
<path d="M222.935 111.369C222.935 111.369 224.168 105.59 228.198 105.59C232.229 105.59 233.286 110.045 230.738 115.133C228.19 120.221 220.978 123.411 220.562 120.438C220.146 117.465 222.935 111.369 222.935 111.369Z" stroke="#161616" stroke-linecap="round" stroke-linejoin="round"/>
<path d="M240.14 102.634C240.14 102.634 229.106 102.85 222.527 102.209C215.949 101.568 220.862 107.206 223.693 107.48C227.107 107.893 230.548 108.046 233.986 107.938C236.521 107.843 239.048 108.277 241.405 109.213C241.405 109.213 245.02 105.182 240.14 102.634Z" fill="white" stroke="#161616" stroke-linecap="round" stroke-linejoin="round"/>
<path d="M233.345 123.028C231.232 120.462 229.385 117.688 227.832 114.75C225.708 110.512 225.075 108.605 229.106 109.021C233.136 109.437 234.835 113.268 235.893 116.449C236.95 119.63 239.499 119.63 239.499 119.63L243.104 109.238L250.324 115.6L243.754 137.85C243.754 137.85 234.843 133.395 233.569 131.488C232.295 129.581 233.561 124.693 233.345 123.028Z" fill="white" stroke="#161616" stroke-linecap="round" stroke-linejoin="round"/>
<path d="M253.289 109.421C253.289 109.421 252.656 106.032 249.683 105.39C246.71 104.749 241.622 101.152 239.923 101.785C238.224 102.417 235.043 112.61 235.043 114.276C235.043 115.941 236.95 117.673 237.592 117.673C238.233 117.673 243.754 107.938 243.754 107.938L253.289 109.421Z" fill="white" stroke="#161616" stroke-linecap="round" stroke-linejoin="round"/>
<path d="M253.505 111.969C253.505 111.969 254.563 109.637 253.505 108.58C252.448 107.522 245.653 105.39 243.321 104.966C240.989 104.541 240.565 105.39 239.29 108.58C238.016 111.769 235.26 116.216 236.534 117.273C237.808 118.331 239.499 119.605 239.499 119.605L243.954 110.487L253.505 111.969Z" fill="white" stroke="#161616" stroke-linecap="round" stroke-linejoin="round"/>
<path d="M243.104 122.37C243.104 122.37 238.866 120.704 238.224 119.397C237.583 118.09 241.83 107.514 242.471 107.306C243.113 107.097 245.861 107.939 246.71 108.363C247.559 108.788 254.138 109.846 254.563 112.61C254.987 115.375 250.532 131.064 250.957 132.762C251.382 134.461 254.779 136.368 254.779 136.368L249.683 145.062C249.683 145.062 241.622 138.067 238.649 136.576C235.676 135.086 239.715 130.214 240.773 127.666C241.83 125.118 243.104 122.37 243.104 122.37Z" fill="white" stroke="#161616" stroke-linecap="round" stroke-linejoin="round"/>
<path d="M243.104 122.37L246.077 116.849" stroke="#161616" stroke-linecap="round" stroke-linejoin="round"/>
<path d="M243.953 116.641L247.984 117.065" stroke="#161616" stroke-linecap="round" stroke-linejoin="round"/>
<path d="M253.505 134.461L245.02 143.155L253.08 150.366L260.925 138.7L253.505 134.461Z" fill="#E59C7F" stroke="#161616" stroke-linecap="round" stroke-linejoin="round"/>
<path d="M305.518 184.292C303.852 183.867 269.627 166.28 265.597 163.732C261.566 161.183 252.015 155.463 252.015 152.49C252.015 149.517 260.292 137.426 260.292 137.426C260.292 137.426 262.415 134.244 265.805 136.151C269.194 138.058 300.855 158.194 308.915 162.441C316.976 166.688 323.13 169.869 323.555 178.138C323.98 186.407 316.976 187.898 312.313 187.298" fill="#E59C7F"/>
<path opacity="0.3" d="M298.456 171.809C287.056 169.594 267.07 163.224 262.34 161.683C263.581 162.516 264.722 163.182 265.596 163.732C269.627 166.28 303.819 183.867 305.518 184.292L312.313 187.265C316.976 187.898 323.971 186.432 323.555 178.105C323.138 169.777 316.976 166.646 308.915 162.408C304.135 159.909 291.045 151.782 280.485 145.203C293.026 154.13 310.98 167.271 311.447 169.611C312.171 173.25 311.447 174.332 298.456 171.809Z" fill="black"/>
<path d="M305.518 184.292C303.852 183.867 269.627 166.28 265.597 163.732C261.566 161.183 252.015 155.463 252.015 152.49C252.015 149.517 260.292 137.426 260.292 137.426C260.292 137.426 262.415 134.244 265.805 136.151C269.194 138.058 300.855 158.194 308.915 162.441C316.976 166.688 323.13 169.869 323.555 178.138C323.98 186.407 316.976 187.898 312.313 187.298" stroke="#161616" stroke-linecap="round" stroke-linejoin="round"/>
<path d="M240.773 178.163L218.289 182.618L219.138 188.556L231.654 190.887L239.923 183.468L240.773 178.163Z" stroke="#161616" stroke-linecap="round" stroke-linejoin="round"/>
<path d="M110.516 210.207C112.078 209.875 113.692 209.875 115.254 210.206C116.817 210.537 118.292 211.193 119.584 212.13C124.348 215.378 136.039 222.123 145.782 225.554C155.525 228.985 157.033 229.235 155.775 235.297C154.518 241.359 150.146 250.02 146.041 251.119C141.935 252.218 133.483 245.923 120.492 238.994C107.501 232.066 95.8099 227.952 94.5108 222.756C93.2117 217.56 98.841 208.691 98.841 208.691" fill="#E59C7F"/>
<path opacity="0.3" d="M145.782 225.579L144.65 225.163L151.97 229.585C151.97 229.585 143.709 229.585 142.535 235.88C141.361 242.176 145.283 245.706 142.926 246.489C140.569 247.272 109.109 232.333 109.109 232.333L110.133 233.798C113.347 235.372 116.845 237.071 120.451 238.995C133.441 245.923 141.885 252.202 145.999 251.119C150.113 250.037 154.434 241.376 155.734 235.297C157.033 229.218 155.484 229.043 145.782 225.579Z" fill="black"/>
<path d="M110.516 210.207C112.078 209.875 113.692 209.875 115.254 210.206C116.817 210.537 118.292 211.193 119.584 212.13C124.348 215.378 136.039 222.123 145.782 225.554C155.525 228.985 157.033 229.235 155.775 235.297C154.518 241.359 150.146 250.02 146.041 251.119C141.935 252.218 133.483 245.923 120.492 238.994C107.501 232.066 95.8099 227.952 94.5108 222.756C93.2117 217.56 98.841 208.691 98.841 208.691" stroke="#161616" stroke-linecap="round" stroke-linejoin="round"/>
<path d="M203.366 231.641C203.366 231.641 207.904 232.474 211.152 231.641C214.4 230.808 214.616 232.474 213.101 235.322C211.585 238.17 207.904 239.436 205.531 239.219C203.158 239.003 199.469 234.023 203.366 231.641Z" fill="white" stroke="#161616" stroke-linecap="round" stroke-linejoin="round"/>
<path d="M163.095 239.652C163.095 239.652 168.724 238.353 170.889 236.838C173.055 235.322 190.159 223.847 192.324 223.847C194.489 223.847 208.979 235.106 209.204 235.972C209.428 236.838 205.098 242.25 203.799 243.333C202.5 244.416 197.304 250.911 196.005 252.21C194.706 253.509 189.726 255.891 188.21 256.324C186.695 256.757 184.53 255.491 184.963 253.942C185.396 252.393 185.795 251.127 185.795 251.127C185.795 251.127 177.568 255.241 173.238 254.159C168.907 253.076 158.731 247.88 158.731 247.88L163.095 239.652Z" fill="white" stroke="#161616" stroke-linecap="round" stroke-linejoin="round"/>
<path d="M185.829 240.518C185.829 240.518 196.221 249.612 196.005 252.177L185.829 240.518Z" fill="white"/>
<path d="M185.829 240.518C185.829 240.518 196.221 249.612 196.005 252.177" stroke="#161616" stroke-linecap="round" stroke-linejoin="round"/>
<path d="M188.643 233.374L200.768 246.148" stroke="#161616" stroke-linecap="round" stroke-linejoin="round"/>
<path d="M192.757 227.311L205.314 241.168" stroke="#161616" stroke-linecap="round" stroke-linejoin="round"/>
<path d="M185.829 251.127C185.829 251.127 189.509 249.828 189.076 251.96L185.829 251.127Z" fill="white"/>
<path d="M185.829 251.127C185.829 251.127 189.509 249.828 189.076 251.96" stroke="#161616" stroke-linecap="round" stroke-linejoin="round"/>
<path d="M152.919 233.59L164.577 238.353L158.515 251.993L146.857 246.364C146.857 246.364 146.432 238.137 152.919 233.59Z" fill="#E59C7F" stroke="#161616" stroke-linecap="round" stroke-linejoin="round"/>
</g>
<defs>
<clipPath id="clip0">
<rect width="388" height="255.311" fill="white" transform="translate(0 0.688721)"/>
</clipPath>
</defs>
</svg>
